<?xml version="1.0" encoding="utf-8"?>
<!-- Generator: Adobe Illustrator 25.0.0, SVG Export Plug-In . SVG Version: 6.00 Build 0)  -->
<svg version="1.1" id="Capa_1" xmlns="http://www.w3.org/2000/svg" xmlns:xlink="http://www.w3.org/1999/xlink" x="0px" y="0px"
	 viewBox="0 0 512 512" style="enable-background:new 0 0 512 512;" xml:space="preserve">
<style type="text/css">
	.st0{fill:#FFFFFF;}
</style>
<path id="XMLID_1166_" class="st0" d="M445.2,326.7v100.7c0,30-24.4,54.4-54.4,54.4h-27.9c12-15.7,17.5-35.6,15.3-55.4L366,320.7
	c-0.2-20.4-6.2-43.9-17.1-66.3c-11.8-24.5-28.2-45.7-47.5-61.3l-0.1-0.1c-28.3-22.8-29-69.3-29-111c0.1-1.1,0.1-38.2,0.1-38.2
	c0-24.1-19.6-43.7-43.7-43.7h-62.9c-14.9,0-29,7.1-37.9,19.1l-8.2,11.1c-3.2,4.3-8.2,6.8-13.6,6.8H91.1c-11.1,0-21.6,4.7-29,13
	s-10.9,19.3-9.7,30.3l2.6,23.3c1.7,15.1,11.3,28.5,25,34.9l25.2,11.8C98,185.7,78.7,282.9,78.7,309.6v112.7
	c-23.5,1.4-42.1,21-42.1,44.8c0,24.8,20.1,44.9,44.9,44.9h220.4h88.9c46.7,0,84.6-38,84.6-84.6V326.7L445.2,326.7L445.2,326.7z
	 M228.8,30.2c7.4,0,13.5,6.1,13.5,13.5l-0.1,35v1.7c-0.9,6.6-6.5,11.7-13.4,11.7c-7.4,0-13.5-6.1-13.5-13.5V30.2L228.8,30.2z
	 M81.5,481.8c-8.1,0-14.7-6.6-14.7-14.7c0-8.1,6.6-14.7,14.7-14.7H174v-42.8c0-22.5,18.3-40.7,40.7-40.7h15.1v-30.2h-15.1
	c-15.2,0-29.2,4.8-40.7,12.9v-33.3h-30.2v103.9H109V309.6c0-18.9,14.2-97.2,28.3-164.9l2.4-11.7l-46.7-22c-4.3-2-7.3-6.2-7.8-10.9
	l-2.6-23.3c-0.4-3.4,1.2-5.7,2.2-6.8c1-1.1,3.1-2.9,6.5-2.9h15.2c14.9,0,29-7.1,37.9-19.1l8.2-11.1c3.2-4.3,8.3-6.8,13.6-6.8h19.1
	v48.5c0,24.1,19.6,43.7,43.7,43.7c5,0,9.8-0.9,14.3-2.4c2.3,36.3,10.4,73.1,39.4,96.5c34.6,28.1,53.3,75.1,53.3,105v0.9l12.3,107.4
	c1.5,13.2-2.7,26.4-11.5,36.3c-8.8,9.9-21.5,15.6-34.8,15.6L81.5,481.8z"/>
</svg>
