<?xml version="1.0" encoding="utf-8"?>
<!-- Generator: Adobe Illustrator 25.0.0, SVG Export Plug-In . SVG Version: 6.00 Build 0)  -->
<svg version="1.1" id="Capa_1" xmlns="http://www.w3.org/2000/svg" xmlns:xlink="http://www.w3.org/1999/xlink" x="0px" y="0px"
	 viewBox="0 0 512 512" style="enable-background:new 0 0 512 512;" xml:space="preserve">
<style type="text/css">
	.st0{fill:#FFFFFF;}
</style>
<g id="XMLID_384_">
	<path id="XMLID_390_" class="st0" d="M422.9,95.5l20.2-71.7H68.9l20.2,71.7C32.3,145.7,0,218.1,0,295.5
		c0,71.4,27.2,138.3,76.7,188.3l4.4,4.5h349.8l4.4-4.5c49.4-50,76.7-116.9,76.7-188.3C512,218.1,479.7,145.7,422.9,95.5L422.9,95.5z
		 M403.4,53.9l-14.7,52.2l7.6,6.2c3.9,3.2,7.7,6.6,11.4,10H104.3c3.7-3.4,7.5-6.8,11.4-10l7.6-6.2l-14.7-52.2H403.4z M77.3,152.4
		h357.4c30.4,40.5,47.2,90.4,47.2,143.1c0,30.1-5.5,59.3-15.9,86.4c-19.1,0.8-30,6.9-38.9,11.9c-8.4,4.7-14.5,8.1-28.5,8.1
		c-14,0-20.1-3.4-28.5-8.1c-9.5-5.3-21.3-12-43.2-12s-33.7,6.6-43.2,12c-8.4,4.7-14.5,8.1-28.5,8.1c-14,0-20.1-3.4-28.5-8.1
		c-9.5-5.3-21.3-12-43.2-12s-33.7,6.6-43.2,12c-8.4,4.7-14.5,8.1-28.5,8.1c-14,0-20.1-3.4-28.5-8.1c-8.7-4.9-19.3-10.8-37.7-11.8
		c-10.4-27.1-15.9-56.3-15.9-86.4C30.1,242.9,46.9,192.9,77.3,152.4L77.3,152.4z M418.2,458.1H93.8c-12-12.8-22.4-26.7-31.1-41.5
		c2,1,4.1,2.1,6.3,3.4c9.5,5.3,21.3,12,43.2,12s33.7-6.6,43.2-12c8.4-4.7,14.5-8.1,28.5-8.1c14,0,20.1,3.4,28.5,8.1
		c9.5,5.3,21.3,12,43.2,12c21.8,0,33.7-6.6,43.2-12c8.4-4.7,14.5-8.1,28.5-8.1c14,0,20.1,3.4,28.5,8.1c9.5,5.3,21.3,12,43.2,12
		s33.7-6.6,43.2-12c2.8-1.5,5.3-2.9,7.9-4.1C440.9,431,430.4,445.2,418.2,458.1z"/>
	<path id="XMLID_1155_" class="st0" d="M135.7,300.7c22.8,13.9,58.4,30.4,98.9,30.4c22,0,40.5-3.5,59.9-11.2
		c14.5,16.6,35.3,26,57.1,26c4.2,0,8.4-0.3,12.7-1.1l32.1-5.3l-3.7-15.7c-1.5-6.5-8.7-35.1-19.2-53.8c10.5-18.7,17.7-47.3,19.2-53.8
		l3.7-15.7l-32.8-5.5c-20.6-3.4-48.1-0.3-65.2,17.6c-20.2-10.6-39-15-63.8-15c-42.3,0-79.1,22-102.6,40.4
		c-9.9,7.7-15.3,19.8-14.5,32.3C118.2,282.8,125,294.2,135.7,300.7L135.7,300.7z M286.9,240.7c1.7,1,3.4,1.7,5.1,2.3
		c0.3,0.1,0.6,0.2,1,0.4c1.3,0.5,3,1.1,4.7,1.6c12.5,3.4,18.2-5.3,19.2-7.1c7.1-12.6,26.6-15.6,41.7-13.1l0.5,0.1
		c-4.3,14.3-10.2,29.7-15.1,35.1l-9.1,10.1l9.1,10.1c4.9,5.4,10.7,20.8,15.1,35.1c-17,2.7-33.8-4-44-17.7c-2.5-3.4-6.2-5.8-11-7.2
		c-2.6-0.7-5.4-1.1-8.1-1.1c-4,0-8,0.8-11.8,2.3c-16.2,6.6-31.1,9.4-49.6,9.4c-4.9,0-9.7-0.3-14.5-0.9c8.2-23,8.1-48.2-0.3-71.2
		c4.8-0.7,9.8-1.2,14.8-1.2C255.4,227.8,270,231.4,286.9,240.7L286.9,240.7z M150.6,261.7c10.6-8.4,24.5-17.6,40.2-24.3
		c7.1,18,7,38-0.3,55.9c-15.3-5.1-28.7-12.1-39.1-18.4c-3.1-1.9-3.8-4.8-3.8-6.4C147.4,267.3,147.5,264.1,150.6,261.7L150.6,261.7z"
		/>
	<path id="XMLID_1157_" class="st0" d="M83.6,235.1c7.9,0,15.4-6.9,15-15c-0.4-8.2-6.6-15-15-15c-7.9,0-15.4,6.9-15,15
		C69,228.2,75.2,235.1,83.6,235.1z"/>
	<path id="XMLID_1158_" class="st0" d="M114.7,365.5c7.9,0,15.4-6.9,15-15c-0.4-8.2-6.6-15-15-15c-7.9,0-15.4,6.9-15,15
		C100.1,358.6,106.3,365.5,114.7,365.5z"/>
	<path id="XMLID_1159_" class="st0" d="M432.7,276.2c7.9,0,15.4-6.9,15-15c-0.4-8.2-6.6-15-15-15c-7.9,0-15.4,6.9-15,15
		C418.1,269.3,424.3,276.2,432.7,276.2z"/>
</g>
</svg>
