<?xml version="1.0" encoding="utf-8"?>
<!-- Generator: Adobe Illustrator 25.0.0, SVG Export Plug-In . SVG Version: 6.00 Build 0)  -->
<svg version="1.1" id="Capa_1" xmlns="http://www.w3.org/2000/svg" xmlns:xlink="http://www.w3.org/1999/xlink" x="0px" y="0px"
	 viewBox="0 0 512 512" style="enable-background:new 0 0 512 512;" xml:space="preserve">
<style type="text/css">
	.st0{fill:#FFFFFF;}
</style>
<g id="XMLID_208_">
	<path id="XMLID_306_" class="st0" d="M399.5,406.3h-7.2v-45c0-93.9-79.9-138.2-122.8-161.9c-2.7-1.5-4.4-4.4-4.4-7.4
		c0-0.4,0-0.8,0-1.2c0-17.7-4.9-35.2-14-50.3c4.5-4.8,7.4-9.1,12.7-20.1c23.2-48,4.9-103.5,4.1-105.8L263,0l-14.4,5.1
		C246.3,6,191.4,26,168.2,74c-4.4,9.1-5.8,14.2-6.4,19.2c-23.8,1.3-48.5,11.2-67.9,27.1c-22.1,18-34.3,41.3-34.3,65.4
		c-0.1,35.8,21.7,51.5,37.6,63c4.6,3.4,9,6.5,12.4,9.8c6.1,5.9,7.9,15.3,4.4,23.3c-7.8,18-11.7,37.2-11.7,57
		c0,28.3,5.4,51.7,16.7,71.7c-22.5,5.6-39.2,25.9-39.2,50.1c0,28.4,23.1,51.6,51.6,51.6h268.1c29.1,0,52.9-23.7,52.9-52.9
		S428.7,406.3,399.5,406.3L399.5,406.3z M131.4,481.9c-11.8,0-21.5-9.6-21.5-21.5c0-11.8,9.6-21.5,21.5-21.5h78.9l-3-17.6
		c-0.8-4.5-1.1-9.2-1-13.8c0.2-11.6,3.2-22.7,8.8-32.9l-26.4-14.4c-7.8,14.3-12.1,30.4-12.4,46.7c0,0.6,0,1.2,0,1.9h-21.7
		c-15.2-18.2-22-40.2-22-70.1c0-15.7,3.1-30.8,9.2-45.1c8.3-19.3,3.9-42.1-11-56.7c-4.9-4.8-10.4-8.8-15.7-12.6
		c-14.1-10.2-25.2-18.2-25.2-38.6c0-33.2,40.1-60.9,74.5-62.4c3.1-0.1,6.4-0.1,9.6,0.3l13.7,1.3l2.5-13.5c1-5.6,1.2-9.3,1.4-12
		c0.2-3.6,0.3-4.9,3.7-12.1c11.1-23,33.1-38.2,48-46.4c2.9,16.8,4.6,43.4-6.5,66.4c-4.7,9.8-5.7,10.8-9.8,14.9
		c-1.6,1.7-3.7,3.7-6.3,6.6l-8.7,9.5l8.1,10c9.8,12.1,15,26.8,15,42.4l0,0.8c-0.2,14.2,7.4,27.2,19.9,34.1
		c40.1,22.2,107.3,59.5,107.3,135.6v104.6c0,8.8-7.2,16-16,16L131.4,481.9L131.4,481.9z M399.5,481.9h-10.1c1.9-5,2.9-10.4,2.9-16
		v-29.5h7.2c12.5,0,22.8,10.2,22.8,22.8S412.1,481.9,399.5,481.9L399.5,481.9z"/>
	<path id="XMLID_308_" class="st0" d="M152.4,159.7c-7.9,0-15.4,6.9-15,15c0.4,8.2,6.6,15,15,15c7.9,0,15.4-6.9,15-15
		C167.1,166.6,160.8,159.7,152.4,159.7z"/>
</g>
</svg>
