<?xml version="1.0" encoding="utf-8"?>
<!-- Generator: Adobe Illustrator 25.0.0, SVG Export Plug-In . SVG Version: 6.00 Build 0)  -->
<svg version="1.1" id="Capa_1" xmlns="http://www.w3.org/2000/svg" xmlns:xlink="http://www.w3.org/1999/xlink" x="0px" y="0px"
	 viewBox="0 0 512 512" style="enable-background:new 0 0 512 512;" xml:space="preserve">
<style type="text/css">
	.st0{fill:#FFFFFF;}
</style>
<path id="XMLID_111_" class="st0" d="M482,266.8c-6.3-98.2-88.2-176.2-188-176.2c-43.3,0-85.6,15.1-119.1,42.4
	c-16.2,13.2-30,29-40.9,46.6c-10.9-24.6-35.5-41.8-64-41.8c-38.6,0-70,31.4-70,70v26.8C0,302,53.7,357.1,120.6,359.4
	c0.9,0.1,1.8,0.1,2.7,0.1h5.3v61.9h99.8v-61.9h132.4v61.9h99.8v-61.9h5.3c25.4,0,46.1-20.7,46.1-46.1V310
	C512,290.3,499.5,273.4,482,266.8L482,266.8z M451.6,263.9h-58.2l-34.9-60l29.9-51.9C423.4,178.1,447.3,218.2,451.6,263.9z
	 M259.6,218.9h72.9l26.1,45H233.4L259.6,218.9z M362.8,136.4l-30.3,52.5h-72.8L228.6,135c20.1-9.2,42.4-14.3,65.5-14.3
	C318.7,120.7,342,126.3,362.8,136.4L362.8,136.4z M202.5,150.1l31.1,53.8l-35,60.1H140v-21.4C149,204.3,171.9,171.8,202.5,150.1
	L202.5,150.1z M30.1,234.6v-1.9h28.3v-30.1H30.4c2.5-19.6,19.3-34.8,39.6-34.8c22,0,39.9,17.9,39.9,39.9v58.1
	C91,271.6,77.1,289.3,77.1,310v3.4c0,1.1,0,2.1,0.1,3.2C49.1,300.1,30.1,269.5,30.1,234.6L30.1,234.6z M198.3,391.3h-39.7v-31.8
	h39.7V391.3z M430.5,391.3h-39.7v-31.8h39.7V391.3z M481.9,313.4c0,8.8-7.2,16-16,16H125c-0.7,0-1.5,0-2.2,0
	c-8.6-0.3-15.5-7.4-15.5-16V310c0-8.8,7.2-16,16-16h342.6c8.8,0,16,7.2,16,16V313.4z"/>
</svg>
