<?xml version="1.0" encoding="utf-8"?>
<!-- Generator: Adobe Illustrator 25.0.0, SVG Export Plug-In . SVG Version: 6.00 Build 0)  -->
<svg version="1.1" id="Capa_1" xmlns="http://www.w3.org/2000/svg" xmlns:xlink="http://www.w3.org/1999/xlink" x="0px" y="0px"
	 viewBox="0 0 512 512" style="enable-background:new 0 0 512 512;" xml:space="preserve">
<style type="text/css">
	.st0{fill:#FFFFFF;}
</style>
<g id="XMLID_1171_">
	<path id="XMLID_1177_" class="st0" d="M354.7,421.6l15.8,86.3H512L213.4,44.9c-17-26.7-46.1-42.6-77.7-42.6
		c-50.9,0-92.2,41.4-92.2,92.2v11.3H0v30h43.5V243c0,92.9,71.3,169.4,162,177.8v38.7c-21.6,6.5-37.4,26.5-37.4,50.2h30
		c0-12.3,10-22.3,22.3-22.3s22.3,10,22.3,22.3h30c0-23.7-15.8-43.7-37.4-50.2v-38H354.7z M395.5,477.9l-10.3-56.3h33.3l37.4,56.3
		H395.5z M237.8,138.8L333.1,288h-41.7c-29.6,0-53.6-24-53.6-53.6V138.8z M73.5,243V94.5c0-34.3,27.9-62.2,62.2-62.2
		c21.3,0,40.9,10.7,52.4,28.7l19.6,30.7v142.7c0,46.1,37.5,83.7,83.7,83.7h60.9l46.9,73.5H222.1C140.2,391.5,73.5,324.9,73.5,243
		L73.5,243z"/>
	<path id="XMLID_1180_" class="st0" d="M126,90c-7.9,0-15.4,6.9-15,15c0.4,8.1,6.6,15,15,15c7.9,0,15.4-6.9,15-15
		C140.7,96.9,134.4,90,126,90z"/>
</g>
</svg>
