<?xml version="1.0" encoding="utf-8"?>
<!-- Generator: Adobe Illustrator 25.0.0, SVG Export Plug-In . SVG Version: 6.00 Build 0)  -->
<svg version="1.1" id="Capa_1" xmlns="http://www.w3.org/2000/svg" xmlns:xlink="http://www.w3.org/1999/xlink" x="0px" y="0px"
	 viewBox="0 0 512 512" style="enable-background:new 0 0 512 512;" xml:space="preserve">
<style type="text/css">
	.st0{fill:#FFFFFF;}
</style>
<path id="XMLID_1117_" class="st0" d="M406.8,315.3h64.7v-30h-64.7c-35.1,0-63.6,28.6-63.6,63.6v2.1c0,35.1,28.6,63.6,63.6,63.6h1.1
	c18.6,0,33.7,15.1,33.7,33.7S426.4,482,407.9,482h-75l-18.2-157.9c-0.2-20-6.1-43.1-16.7-65.2c-11.6-24-27.7-44.9-46.6-60.2
	c-1.5-1.2-3-2.5-4.4-3.9c-13.1-12.6-17-32.1-9.9-49.8c4-9.9,6-20.4,6-31.1v-1.5c0-20.9-8.1-40.5-22.9-55.3
	c-8.1-8.1-18.3-16.6-33.6-20.6c-4.5-6.4-11.7-15.6-20.9-23.1c-21.3-17.3-40.1-14.8-52-9.5l-11.1,4.8l10.5,51.4
	C98.2,71.3,61.2,94.5,61.2,94.5l7.4,37c1,2.9,1.6,5,2.1,7c1.4,5.2,2.8,10.6,9.3,17.4c3.6,3.8,8.8,6.9,16.2,9.7
	c6.3,2.4,9.9,8.9,8.6,15.4c-11.6,55.8-23,111.9-23,132.1v110.4c-23.1,1.5-41.4,20.7-41.4,44.1c0,24.4,19.8,44.2,44.2,44.2h230v0
	h93.2c35.1,0,63.6-28.6,63.6-63.6s-28.6-63.6-63.6-63.6h-1.1c-18.6,0-33.7-15.1-33.7-33.7V349C373.1,330.4,388.2,315.3,406.8,315.3
	L406.8,315.3z M70.5,467.8c0-7.9,6.4-14.2,14.2-14.2h82.1v-42.2c0-22,17.9-39.8,39.8-39.8h15v-30h-15c-14.8,0-28.5,4.6-39.8,12.5
	v-32.5h-30v102h-24.9V313.2c0-18.8,14.5-88.6,22.3-126c4.4-21-7.1-41.9-27.2-49.6c-3.7-1.4-5.1-2.4-5.4-2.6c-1-1.1-3.1-9-4.3-12.6
	l-2.4-12.3c16.4-10.7,40.6-29.3,43.9-31.9l7.4-5.7l-8.4-41.2c8.2,3.1,17.4,12.1,27.5,27l3.7,5.4l6.5,1c8.7,1.4,15.1,5,23.7,13.6
	c9.1,9.1,14.1,21.2,14.1,34.1v1.5c0,6.8-1.3,13.5-3.8,19.9c-11.7,29-5,61.4,16.9,82.6c2,1.9,4.1,3.8,6.3,5.6
	c34,27.6,52.3,73.6,52.3,103v0.9l18,156.2H84.7C76.9,482,70.5,475.6,70.5,467.8L70.5,467.8z"/>
</svg>
