<svg xmlns="http://www.w3.org/2000/svg" viewBox="0 0 541 130.35"><defs><style>.a{fill:#202020;}</style></defs><path class="a" d="M541.32,57.74l-.58,12.43q-7.4-.33-14.8,0c-5,.21-9.9.6-14.77,1.23a108.72,108.72,0,0,0-14.25,2.73,97.75,97.75,0,0,0-13.58,4.84c-4.46,2-8.93,4.23-13.49,6.55a32,32,0,0,0-5.28,3.6c-1.84,1.49-3.75,3.15-5.75,4.84s-4.13,3.43-6.4,5.07a51.66,51.66,0,0,1-7.39,4.52c-1.3.69-2.71,1.24-4.1,1.81-.7.26-1.43.49-2.15.73-.36.11-.72.24-1.07.34l-1.06.25-2.12.49c-.71.16-1.44.34-2,.44-1.28.25-2.62.48-4,.7a75.06,75.06,0,0,1-16.68.93,57.72,57.72,0,0,1-16.77-3.57,34,34,0,0,1-4.19-1.83,39.38,39.38,0,0,1-3.88-2.32,73.58,73.58,0,0,1-6.65-5.11c-4.1-3.51-7.84-7.07-11.57-10.61s-7.49-7.13-11.16-10.84c-1.83-1.86-3.66-3.74-5.45-5.66L347,63.61c-1.67-1.8-3.28-3.41-5.07-5s-3.67-3.17-5.59-4.68a140.19,140.19,0,0,0-12-8.48,144,144,0,0,0-12.83-7.19c-2.2-1.09-4.43-2.11-6.67-3.09s-4.66-2-6.95-2.92a101.7,101.7,0,0,0-13.73-4.55,77.41,77.41,0,0,0-14.05-2.12,84.46,84.46,0,0,0-28.32,3.2c-1.17.32-2.33.68-3.51,1s-2.35.75-3.48,1.14c-2.27.79-4.52,1.66-6.73,2.62a102.24,102.24,0,0,0-12.86,6.65,99.75,99.75,0,0,0-11.8,8.36,60.51,60.51,0,0,0-5.17,4.7c-1.57,1.61-3,3.41-4.65,5.39s-3.27,4-5,6.06-3.49,4-5.3,5.91c-3.62,3.85-7.18,7.5-10.94,11.18a201.41,201.41,0,0,1-24.16,20.45,169.53,169.53,0,0,1-27.33,16.33,96.6,96.6,0,0,1-15.38,5.63,86.3,86.3,0,0,1-16.31,2.67,109,109,0,0,1-32.36-2.7,88.69,88.69,0,0,1-30.14-13A64.64,64.64,0,0,1,14.05,100a58.45,58.45,0,0,1-9.13-14.5c-.58-1.31-1-2.66-1.52-4l-.73-2c-.26-.67-.38-1.37-.58-2.06L1,73.26C.78,71.86.59,70.45.37,69c-.1-.7-.22-1.4-.3-2.11L0,64.8c0-1.43-.19-2.85-.16-4.27L0,56.26,0,55.19c0-.35.1-.7.14-1L.49,52a65.77,65.77,0,0,1,1.77-8.34c.43-1.36.92-2.7,1.38-4,.25-.67.45-1.35.74-2l.89-1.94.89-1.94a15.44,15.44,0,0,1,1-1.9l2.14-3.69a18.91,18.91,0,0,1,1.18-1.78l1.25-1.73L13,22.93c.42-.57.92-1.09,1.38-1.63.94-1.07,1.87-2.15,2.83-3.2l3.12-2.92a30.65,30.65,0,0,1,3.29-2.72l1.69-1.3A14.83,14.83,0,0,1,27,9.94l3.63-2.25c.31-.18.61-.38.92-.55l.95-.47,1.92-.94a53.06,53.06,0,0,1,8-3.21,50.46,50.46,0,0,1,34.25,2,49.94,49.94,0,0,1,25,23.49A42.47,42.47,0,0,1,105,36.3a35,35,0,0,1,1,4.41l.33,2.23c.07.75.09,1.5.14,2.26A41.15,41.15,0,0,1,93.3,77.59c-.56.51-1.09,1-1.67,1.52l-1.79,1.38A34.42,34.42,0,0,1,86.09,83a41.06,41.06,0,0,1-8.32,3.75,34.56,34.56,0,0,1-18.49.41,36.44,36.44,0,0,1-4.44-1.43,37.83,37.83,0,0,1-4.19-2.06A33.5,33.5,0,0,1,43.25,78l-1.6-1.71c-.51-.59-1-1.23-1.45-1.84l-.71-.94c-.22-.31-.42-.65-.63-1l-1.22-2c-.36-.69-.7-1.39-1-2.09l-.5-1c-.16-.37-.29-.76-.44-1.13a30.38,30.38,0,0,1-1.37-4.69,28.8,28.8,0,0,1,16.9-32,23.92,23.92,0,0,1,10-2,22.05,22.05,0,0,1,2.57.19l1.27.18a6.37,6.37,0,0,1,.89.19l.58.14a24.36,24.36,0,0,1,8.67,4.06,24,24,0,0,1,5,6.48l.86,1.82.68,1.87c.22.61.39,1.4.56,2.09s.22,1.4.27,2.09a20,20,0,0,1-1.06,7.71,19.13,19.13,0,0,1-3.7,6.47A13.56,13.56,0,0,1,71.68,65a12.34,12.34,0,0,1-7,.09,16.12,16.12,0,0,1-9.56-7.89c2.81,3,6.7,4.93,10.34,4.85a8.06,8.06,0,0,0,4.72-1.49,9.23,9.23,0,0,0,2.9-3.75,12.07,12.07,0,0,0,.17-9.28c-.13-.31-.33-.55-.46-.82l-.66-1a12.35,12.35,0,0,0-1.53-1.69,12.17,12.17,0,0,0-3.67-2.34,11.51,11.51,0,0,0-2.09-1,7.46,7.46,0,0,0-1.11-.34l-.29-.07-.14,0L63,40.2l-.62-.09a11.75,11.75,0,0,0-4.9.34c-.41.08-.78.28-1.18.4s-.81.4-1.22.58a7.06,7.06,0,0,0-1.2.67,8,8,0,0,0-1.13.76A15.19,15.19,0,0,0,49,46.79a16.44,16.44,0,0,0-2.8,10.4A17.27,17.27,0,0,0,47.5,62.5l.65,1.33.33.66.39.63.77,1.25.9,1.17c.15.19.29.4.45.58l.51.54c.34.35.66.72,1,1.06a23.84,23.84,0,0,0,2.28,1.87A21.27,21.27,0,0,0,60,74.39a23.66,23.66,0,0,0,5.73,1.35,24.24,24.24,0,0,0,3,.05c.49,0,1,0,1.47-.09l1.45-.22A10,10,0,0,0,73,75.16c.47-.13,1-.21,1.43-.38a23.85,23.85,0,0,0,2.78-1.13A22,22,0,0,0,80,72.19l1.33-.82a15.55,15.55,0,0,0,1.25-.93,29.28,29.28,0,0,0,8-9.38A28.47,28.47,0,0,0,94,49.15a29,29,0,0,0-1.86-12.22,39.26,39.26,0,0,0-6.65-11A38.24,38.24,0,0,0,63.25,13.39c-17.19-3.28-35.44,7.43-44.32,22.84l-.84,1.46c-.14.24-.3.47-.42.72l-.35.77-1.4,3c-.45,1-.75,2.11-1.14,3.16L14.22,47l-.4,1.63c-.25,1.09-.56,2.17-.78,3.27l-.47,3.32a24.94,24.94,0,0,0-.27,3.35l-.08,1.67,0,.84.05.84.17,3.35a11.57,11.57,0,0,0,.2,1.66l.25,1.66a52.48,52.48,0,0,0,1.46,6.55c.34,1.06.77,2.1,1.14,3.16L16,79.86c.2.52.47,1,.69,1.52l.7,1.5.81,1.46c.5,1,1.13,1.9,1.72,2.84,4.84,7.46,12.06,13.37,20.21,17.74a85.87,85.87,0,0,0,26.72,8.63A94.71,94.71,0,0,0,81,114.72a84.26,84.26,0,0,0,14.06-1c9.12-1.4,18-4.84,26.47-9.36,4.25-2.24,8.39-4.77,12.47-7.47,2-1.35,4.1-2.77,6.11-4.18s3.94-2.83,5.86-4.32a216.61,216.61,0,0,0,21.87-19.69c3.53-3.59,6.91-7.09,10.12-10.76,1.61-1.83,3.15-3.69,4.71-5.62s3.18-4,5.06-6.07a64,64,0,0,1,6-5.81c2.07-1.76,4.14-3.42,6.29-5a115.74,115.74,0,0,1,28-15.29c2.5-.95,5.07-1.78,7.53-2.54s5.11-1.49,7.72-2.1a95.8,95.8,0,0,1,32.17-2,90.13,90.13,0,0,1,15.91,3.23,136.53,136.53,0,0,1,14.85,5.47l3.52,1.5c1.2.54,2.41,1,3.61,1.61,2.38,1.11,4.75,2.26,7.07,3.5a153.18,153.18,0,0,1,26.25,17.44c2,1.69,4.05,3.45,6,5.36s3.8,3.9,5.48,5.76c3.36,3.71,6.71,7.21,10.25,10.71q2.64,2.63,5.34,5.2l5.46,5.2c3.64,3.42,7.27,6.84,10.91,9.79a42.92,42.92,0,0,0,5.4,3.84,21.26,21.26,0,0,0,2.65,1.34c1,.37,2,.8,3.07,1.13a46.59,46.59,0,0,0,6.44,1.59,52.82,52.82,0,0,0,6.68.64,66.56,66.56,0,0,0,13.8-1.14L430,95.4l.91-.18.8-.19c1-.26,2.16-.45,3.15-.77a31.16,31.16,0,0,0,5.78-2.46,67.83,67.83,0,0,0,11.15-8.2c1.9-1.61,3.85-3.32,6.05-5,1.11-.85,2.25-1.7,3.53-2.51.61-.42,1.3-.81,2-1.19.33-.18.73-.41,1-.55l.84-.43c4.51-2.29,9.14-4.63,14-6.72a105,105,0,0,1,15.17-5.26A119.9,119.9,0,0,1,510,59c5.21-.66,10.43-1.06,15.61-1.27S536.1,57.5,541.32,57.74Z"/></svg>