<?xml version="1.0" encoding="utf-8"?>
<!-- Generator: Adobe Illustrator 25.0.0, SVG Export Plug-In . SVG Version: 6.00 Build 0)  -->
<svg version="1.1" id="Layer_1" xmlns="http://www.w3.org/2000/svg" xmlns:xlink="http://www.w3.org/1999/xlink" x="0px" y="0px"
	 viewBox="0 0 219.1 58.2" style="enable-background:new 0 0 219.1 58.2;" xml:space="preserve">
<style type="text/css">
	.st0{fill:#BE1E2D;}
	.st1{clip-path:url(#SVGID_2_);}
	.st2{fill:#1A1818;}
	.st3{fill:#FFFFFF;}
	.st4{enable-background:new    ;}
</style>
<path class="st0" d="M219.1,58.2H0V0h219.1V58.2z"/>
<g id="Group_6" transform="translate(142 18)">
	<g id="Group_2" transform="translate(-142 3.667)">
		<g>
			<g>
				<defs>
					<rect id="SVGID_1_" x="2.5" y="-10.5" width="74.4" height="43.4"/>
				</defs>
				<clipPath id="SVGID_2_">
					<use xlink:href="#SVGID_1_"  style="overflow:visible;"/>
				</clipPath>
				<g id="Group_1" class="st1">
					<path id="Path_1" class="st2" d="M76.9,25.8c-0.5,1.1-0.7,1.2-2.1,0.7c0.1,0.7,0.1,1.4,0.2,2.2c0,0.2,0.1,0.3,0.2,0.4
						c0.5,0.7,0.8,1.4,0.2,2.2c0,0.1,0,0.2,0,0.3c0.2,0.5,0,0.9-0.6,1.2c-1,0.4-1.9,0.2-2.9-0.2c-0.3-0.1-0.6-0.2-1-0.1
						c-0.9,0.1-1.7-0.3-2.6-0.4c-0.8-0.1-1.7,0.4-2.5,0c-0.8-0.3-1.6-0.7-1.6-1.8c0-0.2-0.2-0.4-0.3-0.5c-0.7-0.7-0.6-1.2,0.4-1.5
						c0.1,0,0.2,0,0.3-0.1c-0.4-2.1,0.9-3.4,2.2-4.8L66,22.5c-0.3,0.9-0.6,1.7-0.9,2.5c-0.2,0.5-0.7,0.8-1.2,0.7
						c-0.6-0.1-0.8-0.7-0.8-1.2c-0.1-1.8-0.1-3.5-0.1-5.3c0-1,0.2-2,0.3-2.9c0.1-0.7,0.6-1.2,1.2-1.3c0.3-0.1,0.5-0.3,0.6-0.5
						c0.5-0.9,1.2-1.6,2.1-2.1c0.2-0.1,0.5-0.3,0.6-0.6c0.8-1.1,2.3-1.3,3.3-0.5c0.1,0.1,0.2,0.2,0.3,0.3c0.3,0.3,0.6,0.5,0.9,0.7
						c0.8,0.4,1.5,1.1,2,1.9c0.1,0.2,0.3,0.4,0.5,0.4c1.2,0.5,1.7,1.5,1.7,2.7c0,1.4,0.1,2.7,0.2,4.1L76.9,25.8z M66.9,21.9l0.1-0.1
						l0.7,0.9c0.2-1,0.1-1.9,0.7-2.6l0.2,0l-0.2,1c0.1-0.1,0.2-0.3,0.2-0.5c0.1-0.7,0.7-0.8,1.2-1c0.1,0,0.3,0.1,0.4,0.3
						c0,0.1,0,0.2,0,0.3c0.2,0.1,0.5,0.1,0.5,0.2c0.1,0.5,0.2,0.9,0.3,1.4c0.1,0.8,0.1,0.8,0.9,1c0-0.3-0.6-0.5,0-0.9l0.7,1
						c2.1-2,2.4-5.8,1.9-6.9c-0.2,0.1-0.3,0.1-0.5,0.1c-0.4,0-0.8-0.1-1.2-0.2c-0.5-0.1-0.9-0.3-0.8-0.9c0.1-0.6,0.4-1.2,0.6-2
						c-0.5-0.2-1.1-0.4-1.7-0.4c-0.5,0-0.6-0.2-0.6-0.5l1,0.1c-0.9-0.8-2.4-0.7-2.9,0l1.1,0.3c-0.1,0.2-0.2,0.3-0.3,0.3
						c-2-0.3-3.7,1.8-4,3.3c-0.3,1.4-0.3,2.9,0.1,4.4c0.2,1.1,1,2,2,2.5L66.9,21.9 M68.7,31.5c0.7,0.5,1.5,0.5,2.2,0.4
						c0-0.4,0-0.9,0-1.3c0.1-0.4,0.1-0.7-0.1-1.1c-0.1-0.2,0.2-0.7,0.4-1c0.1-0.1,0.3-0.1,0.6-0.1l-0.6,1.3l0.1,0.1
						c0.9-0.4,1.6,0,2.3,0.5c0.2,0.1,0.4,0.1,0.6,0.1l0.1-0.2C73.7,30,73.2,29.6,73,29c-0.1-0.3-0.1-0.7-0.2-1c0.3,0,0.7,0,1-0.1
						c0.2,0,0.3,0,0.5,0.1l-1.1-1.6l0.2-0.1l0.9,0.9c-0.2-1.4-1.6-3-2.5-3c0,0.5-0.1,0.9-0.1,1.4c-0.6,0.2-1.1,0-1.4-0.6
						c-0.3-0.6-0.5-1.3-0.6-1.9c-0.1-0.6-0.1-1.3-0.1-1.9c-0.4,1.2-0.9,2.3-0.2,3.5c0.1,0.1,0.1,0.3,0.1,0.5
						C69.3,25,69.1,25,69,24.9c-0.2-0.2-0.3-0.5-0.4-0.8c-0.1-0.7,0-1.4,0-2.2L68.2,22l0.2,0.5l-1.1,0.9l0.7,0.4c0,0,0,0.1,0,0.1
						c-0.7,0-1.4-0.1-1.7,0.6l0.7,0.1l0,0.1l-0.8,0.4c0.7,0.1,0.7,0.7,0.8,1.2c0.1,0.8-0.7,0.9-1.1,1.2c-0.1,0.1-0.5-0.3-0.8-0.5
						c0,0.7,0.2,1.4,0.9,1.9c0.9-1,1.5-1.2,2.3-0.7C69.2,29,69.3,30.1,68.7,31.5 M75.2,16.7c0.5,1.2-0.1,2.2-0.5,3.2c0,0,0,0,0,0.1
						c0,1.9-0.1,3.8-0.1,5.6c0,0.6,0.6,0.6,1.1,0.6s0.7-0.1,0.7-0.6c0-0.7,0.1-1.3,0.1-2c-0.1-1.9-0.2-3.8-0.3-5.7
						C76.1,17.3,75.8,17,75.2,16.7 M64.7,15.5c-0.7,0.2-1.1,0.9-1,1.3l0.5,0.1c-0.5,0.9-0.8,1.8-0.4,2.8c0.1,0.5,0.1,1,0,1.5
						c-0.3,1.2-0.3,2.4-0.2,3.6c0,0.2,0.2,0.4,0.4,0.5c0.2,0,0.4,0,0.6-0.2c0.6-0.6,1-2.7,0.6-3.5c-0.7-1.4-0.8-2.8-0.7-4.3
						C64.5,16.8,64.6,16.2,64.7,15.5 M71.3,30.5c0.8-0.1,1.1,0.4,1.3,0.9c0.5,1,0.8,1.2,1.6,1.1c0.3-0.1,0.6-0.3,0.9-0.6
						c-0.2-0.3-0.4-0.8-0.7-0.8c-0.5-0.1-0.8-0.4-1.1-0.7C72.7,29.8,71.8,29.8,71.3,30.5 M68.2,28.8c-0.1-0.1-0.3-0.1-0.4-0.2
						c-0.7-0.1-1,0.4-1.3,0.8c-0.2,0.3-0.4,0.6-0.8,0.4c-0.4-0.3-0.7-0.1-0.8,0.2c-0.2,0.3-0.1,0.7,0.2,0.9c0.8,0.7,1.7,0.6,2-0.6
						C67.2,29.7,67.3,29.1,68.2,28.8 M74.1,21.7l-1.3,1.6l1.2,2l0.1-0.1V21.7z M67,31.6c1.1,0.2,1.7-0.4,1.6-1.6
						c0-0.2-0.2-0.4-0.3-0.6c-0.2,0.1-0.5,0.2-0.6,0.4C67.5,30.4,67.3,31,67,31.6 M70.3,22.3l-0.2,0.2c0.1,0.3-0.2,0.8,0.4,0.9
						c0.6,0.1,1.2,0.1,1.7,0.2l0.1-0.1L70.3,22.3 M65.4,29.1c-0.1-0.4-0.4-0.7-0.8-0.6c-0.1,0-0.1,0-0.2,0c-0.2,0-0.5,0.3-0.5,0.4
						c0.1,0.3,0.3,0.5,0.4,0.8L65.4,29.1 M72.5,32.4l0.2-0.2c-0.3-0.4-0.5-0.8-0.8-1.2c-0.1-0.1-0.3-0.2-0.5-0.3
						c0,0.2-0.1,0.5,0,0.6C71.8,31.8,72.2,32.1,72.5,32.4 M75.1,31.1c0.4-0.6,0.3-1-0.2-1.4l-0.4,1L75.1,31.1 M75.2,15.3
						c-0.2,0.9,0.5,1,0.9,1.4l0.2-0.1L75.2,15.3"/>
					<path id="Path_2" class="st2" d="M6.1,23.5c0-1-0.1-2,0-2.9c0.1-1.1,0.7-2,1.3-2.8c0.4-0.5,0.7-1.2,1.1-1.7
						c0.4-0.5,0.9-1,1.4-1.4c0.3-0.2,0.5-0.4,0.8-0.6L8,11.9c-0.1,0.8-0.1,1.5-0.1,2.3C7.6,15.6,7,17,6,18.1
						c-1.2,1.2-2.7,0.9-3.1-0.8c-0.2-1-0.4-2-0.4-3.1c0-2.8,0-5.6,0-8.4c0-0.1,0-0.2,0-0.3C3.1,4,3.2,2.4,3.1,0.8
						C3-0.5,3.7-1.6,4.9-2.1c0.2-0.1,0.4-0.2,0.6-0.2c0.8,0,1.2-0.5,1.5-1.1c0.9-1.8,2.4-3.2,4.2-4.1c0.4-0.2,0.8-0.6,1.1-0.9
						c1.5-2.1,4.4-2.6,6.5-1.1c0.4,0.3,0.8,0.6,1,1c0.2,0.2,0.4,0.4,0.7,0.6c2.1,1,3.8,2.4,4.9,4.6c0.1,0.2,0.3,0.4,0.5,0.4
						c2.5,0.7,3.7,2.4,3.6,5c0,1.4-0.2,2.8-0.1,4.2c0.1,2.2,0.4,4.3,0.5,6.4c0.2,2.2,0.3,4.5-0.3,6.7c-0.4,1.2-1.2,1.7-2.5,1.3
						c-0.6-0.2-1.3-0.5-1.9-0.8c0.3,0.7,0.6,1.5,0.8,2.2c0.1,0.8,0.2,1.6,0.2,2.5c0,0.2,0.1,0.4,0.2,0.5c0.2,0.4,0.6,0.8,0.8,1.2
						c0.8,1.4,0.7,2.6-0.3,3.8c1.1,1,0.3,2.2-0.6,2.5c-1.5,0.6-3.3,0.6-4.8-0.1c-0.5-0.2-1-0.5-1.5-0.8c-0.2-0.1-0.4-0.1-0.6-0.1
						c-2.1,0.6-4.3,0.3-6.2-0.9c-0.7,0.7-1.5,0.8-2.4,0.7c-1.8,0-3.3-0.6-4.6-1.9c-0.5-0.5-0.8-1.2-0.7-1.9c0.1-0.3-0.1-0.7-0.4-0.8
						c-0.3-0.2-0.6-0.5-0.8-0.9c-0.6-0.9-0.3-1.7,0.7-2C5.2,23.7,5.7,23.6,6.1,23.5 M19.4,14.9l-0.3-0.6l0.1-0.1l2.3,0.9
						c-0.2-0.3-0.4-0.6-0.7-0.8c-0.6-0.5-1.3-1-2-1.4c-0.6-0.3-1-0.6-1-1.3c0-0.6,0.1-1.3,0.1-1.9c0-0.2,0.1-0.4,0.2-0.5l0.1,0
						l0.4,3.5c1-0.5,1.3,0.5,2,0.6c-0.4-0.4-0.7-0.9-1-1.4c-0.1-0.2,0-0.5,0-0.8c0.2,0.1,0.5,0.2,0.7,0.4c0.1,0.1,0.1,0.2,0.2,0.3
						c0.8,1.5,1.6,2.9,2.4,4.4c0.4,0.7,1,1.4,1.5,2.2v-7.8c-0.2,0.3-0.4,0.4-0.5,0.6c-0.5,0.7-0.9,1.4-1.5,2
						c-0.1,0.2-0.5,0.1-0.8,0.2c0-0.2,0-0.5,0-0.7c0.1-0.2,0.2-0.3,0.3-0.4c1.3-1.3,2.2-3,2.6-4.8c0.2-1,0.7-2,0.8-3
						c0.2-1.4,0.1-2.9,0.1-4.3c0-0.4-0.3-0.8-0.7-0.9c-0.2,0.8-0.6,0.5-1.1,0.3C23.4-0.9,22.9-1,22.5-1c-0.2,0-0.5,0-0.8,0
						c-0.9-0.1-1.4-0.6-1.4-1.5c0-0.5,0-1,0.1-1.4c0.1-0.9,0.8-1.6,1.6-2.3c-1.1-0.5-2-0.9-3-1.3c-0.3-0.1-0.7-0.1-1,0
						c-0.9,0.2-1.2-0.2-1-1.1c0.6,0.6,1.3,0.2,2,0.2c-1-1.2-2.3-1.4-3.8-1.2c-1.1,0.2-2.4,0.7-2.5,1.4c0.9-0.2,1.7-0.3,2.4,0.5
						c-0.2,0.1-0.4,0.2-0.7,0.2C13-7.6,11.3-7.1,10-6.1C8.9-5.1,8-3.9,7.3-2.6c-0.8,1.5-1,3.1-1,4.8c-0.1,2.2,0,4.5,0.8,6.6
						c0.6,1.8,1.8,3.2,3.5,4l0.2-0.1l-0.5-1.6c1,0.2,0.9,1.2,1.4,1.8l0.9-0.8l0,0c0.3,0.1,0.8-0.2,0.8,0.4c-0.7,0.6-1.8,0.8-2,2
						c0.3,0.1,0.6,0.2,0.9,0.3c0.1,0.1,0.2,0.3,0.3,0.4c-0.2,0-0.4,0.1-0.5,0.1c-1-0.4-1.8,0.1-2.5,0.6c-0.2,0.2-0.4,0.5-0.5,0.9
						c0.3,0,0.4,0,0.6,0c0.3,0,0.6,0,0.8,0.1c0,0.5-0.4,0.5-0.8,0.6c-0.1,0-0.2,0-0.2,0c-0.4,0.2-0.7,0.4-1.1,0.6l0.1,0.1
						c1.3-0.3,1.2-0.2,1.8,0.6c0.3,0.6,0.2,1.1,0.3,1.7c0.1,0.8-0.7,0.9-1.1,1.3c-0.3,0.2-0.5,0.4-0.8,0.6c-0.6,0.4-0.8,0.4-1.2-0.2
						C7.2,21.8,7,21.4,6.8,21c-0.5,1.6,0.5,3.9,1.8,4.4c0.3-0.4,0.5-0.7,0.8-1c0.7-0.7,1.8-1.3,3.1-0.6c1.4,0.7,1.9,1.8,2,3.2
						c0.1,1.2-0.3,2.2-0.9,3.2c1.6,1,3.3,1.1,5,0.7c-1-1.3-0.5-2.5,0-3.7c-1.1-0.9-0.7-1.9,0.3-2.9c0.4-0.4,0.7-0.5,1.1-0.1
						c-0.3,0.9-1.5,1.4-0.9,2.6c1.4-0.8,2.6-0.4,3.8,0.3c0.4,0.3,0.8,0.6,1.2,0.8c0.2,0.1,0.5,0,0.7-0.1c0.1,0,0.2-0.2,0.2-0.3
						c-0.1-0.1-0.2-0.2-0.4-0.3c-1.8-0.2-2.4-1.6-2.8-3.1c-0.3-0.9,0.2-1.4,1.1-1.2c0.6,0.1,1.1,0.3,1.7,0.4
						c-0.3-1.4-1.2-2.2-2.1-3.2c0.2-0.1,0.4-0.2,0.5-0.2c1.1,0.5,1.5,1.6,2.3,2.7c0-0.2,0-0.4-0.1-0.6c-0.5-1.1-0.9-2.2-1.4-3.3
						c-0.8-1.8-2.5-3.1-4.4-3.5L19.4,14.9 M26.7,0.6l-0.2,0.2c0.1,0.6,0.2,1.1,0.3,1.7c0.1,1,0.1,2-0.5,2.9c-0.7,1.2-1,2.5-1,3.8
						c0,2.9,0,5.8,0,8.7c-0.1,0.6,0.3,1.2,0.9,1.5c0.5,0.2,1.1,0.3,1.7,0.3c0.8,0,0.9-0.2,1.1-1c0.3-1.9,0.3-3.8,0.1-5.7
						c-0.4-3.1-0.6-6.2-0.5-9.3c0-0.8-0.2-1.6-0.8-2.1C27.5,1.2,27.1,0.9,26.7,0.6 M4.7,1.5C3.7,3.2,3.1,4.8,3.9,6.7
						C4,7,4.1,7.3,4.1,7.6C4.2,8.3,4.2,9,4,9.6c-0.3,1.2-0.6,2.4-0.7,3.6c-0.1,1.2,0.1,2.4,0.2,3.6c0,0.6,0.4,1.3,0.9,1.4
						c0.6,0.1,1.2-0.2,1.5-0.8c0.3-0.6,0.6-1.2,0.8-1.8c0.6-2,0.9-3.9-0.3-5.8C6.3,9.6,6.2,9.5,6.2,9.3c-0.9-2.4-0.8-5-0.7-7.5
						c0.1-1.1,0.2-2.2,0.4-3.4c-1.2,0.1-2.4,1.7-2.1,3l0.5-0.4L4.7,1.5 M24.1,32.3c0.5-0.1,1-0.2,1.5-0.4c1.1-0.5,1.2-1.1,0.4-2
						c-0.1-0.1-0.2-0.2-0.3-0.3c-0.4-0.2-0.7-0.6-1.2-0.4c-0.2,0.1-0.6-0.2-0.8-0.5c-0.6-1.1-1.7-1.7-3-1.8c-0.5,0-1,0.3-1.5,0.5
						c-0.1,0.1-0.3,0.4-0.2,0.5c0.1,0.2,0.3,0.3,0.5,0.3c0.9,0,1.4,0.4,1.7,1.2c0.3,0.7,0.6,1.3,1,1.9
						C22.7,31.9,23.3,32.4,24.1,32.3 M12.9,25.1c0-0.1,0-0.1,0-0.2c-0.3-0.2-0.6-0.4-0.9-0.5c-0.9-0.2-1.6,0.2-2.1,0.9
						c-0.4,0.5-0.8,0.9-1.2,1.4C8.5,27,8.1,27,7.8,26.8c-0.1,0-0.1-0.1-0.1-0.1c-0.1-0.1-0.3-0.2-0.4-0.2c-0.6,0-1.1,0.4-1.2,1
						C5.8,28,5.8,28.6,6.4,29c0.3,0.2,0.7,0.5,1,0.7c0.9,0.6,2.3,0.1,2.7-0.8c0.2-0.6,0.4-1.2,0.6-1.7C11.1,26.1,11.5,25,12.9,25.1
						 M10.2,30.2c0.8,0.5,1.9,0.5,2.6-0.2c0.9-0.9,1.1-2,1-3.2c0-0.5-0.2-0.9-0.7-1c-0.5-0.1-0.9,0.1-1.1,0.5
						c-0.3,0.6-0.6,1.2-0.7,1.8C11,28.9,10.9,29.7,10.2,30.2 M7.5,25.4c-0.2-0.2-0.4-0.5-0.5-0.8c-0.2-0.4-0.7-0.6-1.1-0.5
						c-0.3,0-0.5,0.1-0.8,0.1c-0.5,0-0.8,0.4-0.8,0.9c0,0,0,0.1,0,0.1c0,0.5,0.8,1.3,1.2,1.3c0.1,0,0.2-0.1,0.3-0.1
						C6.3,26.1,6.9,25.8,7.5,25.4 M21.9,32l0.1-0.1c-0.2-0.3-0.4-0.7-0.6-1c-0.4-0.7-0.9-1.4-1.4-2c-0.1-0.2-0.6-0.2-0.9-0.2
						c-0.1,0-0.3,0.5-0.2,0.6c0.2,0.5,0.5,1,0.8,1.4C20.4,31.2,21.1,31.7,21.9,32 M26.4,29.5c0.5-0.4,0.8-1.1,0.6-1.8
						c-0.1-0.7-0.6-1.2-1.2-1.5c0,0.9,0.1,1.7-0.7,2.2L26.4,29.5 M26.1-2c0.1,0.5,0.1,0.9,0.2,1.3c0,0.1,0.1,0.2,0.2,0.3
						c0.8,0.6,1.5,1.1,2.3,1.7C28.3,0.1,27.8-1.4,26.1-2"/>
					<path id="Path_3" class="st2" d="M53.2,22.9c0.2,1,0.6,1.9,0.6,2.9c0,0.6,0.2,1.2,0.5,1.7c0.8,1.1,0.8,2.2-0.1,3.2
						c0.6,0.7,0.5,1.5-0.4,1.9c-1.6,0.8-3.2,0.5-4.7-0.4c-0.3-0.2-0.8-0.3-1.2-0.2c-1.5,0.4-3,0-4.4-0.8c-0.5,0.6-1.3,0.6-2,0.6
						c-1.2,0-2.3-0.5-3.2-1.3c-0.4-0.4-0.6-0.9-0.7-1.4c0-0.4-0.2-0.8-0.5-1c-0.1-0.1-0.2-0.2-0.3-0.3c-0.6-0.8-0.4-1.5,0.5-1.8
						c0.3-0.1,0.6-0.1,0.9-0.2c0-0.8,0-1.5,0-2.2c0.1-0.9,0.5-1.6,1.1-2.2c0.2-0.2,0.3-0.4,0.5-0.6c0.3-0.8,0.8-1.4,1.6-1.8
						c0.2-0.1,0.3-0.2,0.5-0.3l-2-1.5c-0.2,1-0.4,2.1-0.7,3.1c-0.2,0.6-0.6,1.1-1,1.5c-0.8,0.9-2,0.6-2.2-0.5c-0.2-1-0.4-2-0.4-3.1
						c-0.1-1.2,0-2.4,0-3.6c0-1.4,0.2-2.8,0.5-4.2c0.1-0.5,0-1.1,0-1.7c0-1.5,0.7-2.4,2.2-2.7c0.2-0.1,0.4-0.2,0.5-0.4
						c0.8-1.5,2-2.8,3.5-3.6c0.4-0.3,0.8-0.6,1.1-1.1c1.3-1.4,3.5-1.5,5-0.1c0.1,0.1,0.2,0.2,0.3,0.4c0.2,0.3,0.5,0.5,0.9,0.7
						c1.5,0.7,2.7,1.8,3.4,3.2c0.1,0.2,0.3,0.4,0.6,0.5c1.6,0.4,2.8,2,2.7,3.7c0,1.1-0.2,2.2-0.1,3.4c0.1,1.7,0.4,3.3,0.4,5
						c0,1.6,0,3.2-0.2,4.8c-0.2,1.3-1.1,1.7-2.3,1.2C53.8,23.2,53.5,23,53.2,22.9 M50.2,17.7c0.5,0.9,0.9,1.8,1.4,2.7
						c0.3,0.4,0.5,0.8,0.8,1.2v-5.8c-0.5,0.7-0.9,1.2-1.3,1.8C50.9,18,50.5,18,50.2,17.7c0.1-0.2,0.2-0.4,0.3-0.6
						c0.5-0.7,1.2-1.3,1.5-2.1c1-2.4,1.6-4.8,1.3-7.4c-0.1-0.3-0.2-0.5-0.3-0.8l-0.1,0.2c-0.3,0-0.5,0.1-0.8,0
						C51.6,7.1,51.2,7,50.7,7c-1.1,0-1.6-0.5-1.5-1.6c0-1,0.5-1.9,1.3-2.4c-1-0.5-1.8-1.2-2.9-1.1c-0.8,0.1-1,0-0.9-0.7h1.5
						c-1.1-1.3-3.8-1.2-4.7,0.1c0.6,0.1,1.3-0.2,1.9,0.6c-0.3,0-0.5,0-0.7,0c-0.4,0-0.8,0-1.2,0.1c-2.4,0.5-3.9,2.3-4.6,4.5
						c-0.9,2.6-0.7,5.4,0.2,8c0.4,1.4,1.5,2.5,2.8,3l-0.4-1.4c0.8,0.1,0.7,0.8,1.1,1.3l0.5-0.4c-0.1-0.2-0.3-0.5-0.2-0.7
						c0.2-0.9,0.5-1.8,0.7-2.6c0-0.1,0.3-0.2,0.4-0.2c0,0.2,0.2,0.3,0.1,0.5c-0.1,0.5-0.3,1-0.5,1.4l-0.2,1.4l0.6,0.3
						c-0.6,0.5-1.5,0.7-1.6,1.6c0.1,0,0.3,0.1,0.4,0.1c0.2,0.1,0.4,0.3,0.5,0.4c-0.2,0-0.4,0.1-0.7,0c-0.8-0.1-1.8,0.4-1.9,1.2h1
						c-0.2,0.9-1.3,0.4-1.5,1c0.3,0,0.9,0,1,0.2c0.5,0.6,0.6,1.3,0.4,2.1c-0.1,0.3-0.5,0.5-0.8,0.8c-0.2,0.2-0.4,0.3-0.6,0.4
						c-0.2,0.2-0.5,0.2-0.7,0c0,0-0.1-0.1-0.1-0.2c-0.2-0.3-0.3-0.6-0.5-0.9c-0.2,1.5,0.3,2.7,1.3,3.3c0,0,0.1-0.1,0.1-0.1
						s0.1-0.1,0.1-0.2c0.5-0.7,1.2-1.4,2.2-1.2c1,0.2,1.8,1,2.1,2c0.3,1.1,0,2.1-0.6,3c0.9,0.7,2.8,1,3.7,0.5
						c-0.7-0.9-0.3-1.8,0.1-2.7c-0.6-0.7-0.6-1.3,0-2c0.3-0.4,0.6-0.7,1.1-0.3c-0.2,0.7-1.2,1-0.7,2c0.9-0.5,1.7-0.4,2.5,0
						c0.4,0.2,0.8,0.5,1.2,0.7c0.4,0.3,0.7,0.2,0.9-0.2c0,0-0.1-0.1-0.1-0.1c0,0-0.1-0.1-0.2-0.1c-1.3-0.2-1.8-1.1-2.2-2.2
						c-0.3-0.9,0.2-1.3,1-1.1c0.3,0.1,0.7,0.2,1,0.3l0.2-0.2l-1.6-2.3c0.5-0.2,0.5-0.2,1.9,1.6c-0.2-1.7-2.2-5.3-4.4-5.2
						c1,0.6-0.1,1.4,0.2,2c-0.1,0.1-0.2,0.2-0.3,0.2c-0.6,0.1-1.1,0-1.5-0.5c-0.7-0.9-1.1-2-1.3-3.1c-0.1-1.1-0.2-2.2-0.2-3.3
						c-0.8,2-1.6,4.1,0,6c-0.3,0.4-0.5,0.4-0.7,0c-0.6-0.9-1-1.9-0.8-3.1c0.1-0.5,0.2-1,0.3-1.5c0,0,0-0.1-0.1-0.2l-0.5,0.2
						c0-0.3-0.1-0.6-0.1-0.8c0.1-0.1,0.3-0.1,0.3-0.2c0.3-0.6,0.5-1.1,0.8-1.7c0.2-0.5,0.4-0.7,0.8-0.4c0.4-0.2,0.7-0.4,0.9-0.4
						c0.4,0.1,0.2,0.5,0.2,0.8c-0.3,1.5-0.3,3-0.1,4.5c0,0.4,0.2,0.5,0.6,0.5c0.4,0,0.9,0.1,1.3,0.2c0-0.1,0-0.1,1.8,0.4
						c-0.5-0.4-0.8-0.7-1.2-1c-0.4-0.3-0.9-0.6-1.3-0.9c-0.5-0.3-0.5-1.9,0.1-2.7c0,0.4,0,0.6,0,0.9c0,1.5,0.3,1.8,1.6,2.1
						c-0.2-0.2-0.4-0.5-0.5-0.8c0-0.2-0.1-0.5,0-0.7c0.2,0.1,0.4,0.2,0.6,0.3C49.7,16.9,49.9,17.3,50.2,17.7 M54,8.3
						c0,0.2,0,0.4,0.1,0.6c0.2,1.1,0.2,2.1-0.3,3.2c-0.4,0.8-0.6,1.7-0.7,2.7c-0.1,2.3,0,4.5,0,6.8c0,0.5,0.2,0.9,0.7,1
						c0.5,0.1,1.1,0.2,1.6,0.1c0.1,0,0.4-0.3,0.4-0.4c0.1-1.2,0.2-2.5,0.2-3.7c0-1.1-0.2-2.1-0.3-3.2c-0.1-1.7-0.1-3.4-0.1-5.2
						C55.5,9.3,54.9,8.6,54,8.3 M36.9,8.5l0.2,0c0,0.2,0.1,0.4,0,0.6c-0.7,1.2-1,2.5-0.4,3.9c0.3,0.7,0.3,1.5,0,2.2
						c-0.6,1.8-0.6,3.7-0.3,5.5c0.1,0.4,0.3,0.7,0.7,0.8c0.4,0,0.8-0.1,1-0.4c1-1.8,1.6-3.6,0.7-5.6c-0.2-0.4-0.3-0.8-0.5-1.1
						c-0.5-1.4-0.4-2.9-0.4-4.3c0-1.2,0.2-2.3,0.2-3.5c-0.8,0.2-1.4,0.9-1.6,1.7c0,0.2,0,0.4,0,0.6L36.9,8.5 M52.2,32.5
						c0.5-0.1,1-0.3,1.4-0.5c0.2-0.1,0.4-0.6,0.3-0.7c-0.3-0.5-0.8-1.2-1.2-1.2c-0.7,0-0.9-0.4-1.2-0.8c-0.7-0.9-2.3-1.3-3-0.7
						c-0.1,0.1-0.2,0.3-0.3,0.5c0.2,0.1,0.3,0.1,0.5,0.2c0.6,0,1.1,0.4,1.3,0.9c0.2,0.5,0.5,1,0.8,1.5
						C51.1,32.2,51.6,32.5,52.2,32.5 M43.5,26.9c-0.7-0.6-1.3-0.7-1.8-0.2c-0.4,0.4-0.7,0.8-1,1.2c-0.3,0.3-0.6,0.7-1,0.4
						c-0.4-0.3-1-0.2-1.2,0.2c-0.1,0.1-0.2,0.3-0.2,0.5c-0.1,0.8,1,1.8,1.8,1.7c0.7,0,1.3-0.3,1.5-1.1c0.1-0.5,0.3-0.9,0.5-1.4
						C42.3,27.5,42.6,26.9,43.5,26.9 M41.6,30.9c0.7,0.4,1.6,0.2,2.1-0.5c0-0.1,0.1-0.2,0.1-0.3c0.2-0.6,0.3-1.2,0.4-1.9
						c0-0.3-0.2-0.5-0.4-0.7c-0.3-0.2-0.7-0.1-0.9,0.3c0,0,0,0.1,0,0.1c-0.2,0.5-0.4,1.1-0.6,1.6C42,29.9,41.8,30.4,41.6,30.9
						 M39.4,27.2c-0.8-1.3-0.7-1.1-1.9-0.9c-0.2,0-0.5,0.5-0.5,0.6c0.2,0.4,0.4,0.7,0.7,1c0.1,0.1,0.4-0.1,0.6-0.2
						C38.7,27.6,39,27.4,39.4,27.2 M50.3,32.2l0.1-0.2c-0.4-0.6-0.8-1.3-1.2-1.9c-0.2-0.3-0.4-0.6-0.8-0.4c-0.5,0.3-0.2,0.6,0,1
						c0.1,0.2,0.2,0.3,0.3,0.4C49.2,31.5,49.8,31.8,50.3,32.2 M53.6,27.8L53,29.5l0.9,0.7C54.6,29.5,54.5,28.5,53.6,27.8 M53.7,6.2
						c0.1,0.4,0.1,0.9,0.3,1.1c0.6,0.5,1.2,0.9,1.8,1.4C55.2,7.6,54.9,6.6,53.7,6.2"/>
					<path id="Path_4" class="st3" d="M66.9,21.9l0.3,0.8c-1-0.5-1.8-1.4-2-2.5c-0.3-1.4-0.4-2.9-0.1-4.4c0.4-1.6,2.1-3.7,4-3.3
						c0.1,0,0.2-0.1,0.3-0.3l-1-0.3c0.6-0.7,2-0.8,2.9,0l-1-0.1c0,0.4,0.1,0.5,0.6,0.5c0.6,0.1,1.1,0.2,1.7,0.4
						c-0.2,0.8-0.5,1.4-0.6,2c-0.1,0.5,0.3,0.8,0.8,0.9c0.4,0.1,0.8,0.1,1.2,0.2c0.2,0,0.4-0.1,0.5-0.1c0.4,1.2,0.2,4.9-1.9,6.9
						l-0.7-1c-0.6,0.4,0,0.6,0,0.9c-0.8-0.2-0.8-0.2-0.9-1c-0.1-0.5-0.2-0.9-0.3-1.4c0-0.1-0.3-0.1-0.5-0.2c0.1-0.1,0.1-0.2,0-0.3
						c-0.1-0.1-0.3-0.3-0.4-0.3c-0.4,0.3-1.1,0.4-1.2,1c-0.1,0.2-0.1,0.3-0.2,0.5l0.2-1l-0.2,0c-0.6,0.7-0.6,1.7-0.7,2.6l-0.7-0.9
						L66.9,21.9"/>
					<path id="Path_5" class="st3" d="M68.7,31.5c0.7-1.4,0.5-2.5-0.3-3.1C67.6,27.9,67,28,66,29.1c-0.7-0.5-0.9-1.2-0.9-1.9
						c0.3,0.2,0.7,0.6,0.8,0.5c0.4-0.3,1.2-0.4,1.1-1.2c-0.1-0.5-0.1-1.1-0.8-1.2l0.8-0.4l0-0.1l-0.7-0.1c0.3-0.8,1-0.7,1.7-0.6
						c0,0,0-0.1,0-0.1l-0.7-0.4l1.1-0.9l-0.2-0.5l0.4-0.1c0,0.8,0,1.5,0,2.2c0.1,0.3,0.2,0.5,0.4,0.8c0.1,0.1,0.3,0.2,0.4,0.2
						c0-0.1,0-0.3-0.1-0.5c-0.8-1.2-0.2-2.4,0.2-3.5c0,0.6,0.1,1.3,0.1,1.9c0.2,0.7,0.4,1.3,0.6,1.9c0.2,0.6,0.7,0.7,1.4,0.6
						c0-0.5,0.1-0.9,0.1-1.4c1,0,2.3,1.7,2.5,3l-0.9-0.9l-0.2,0.1l1.1,1.6c-0.2,0-0.3-0.1-0.5-0.1c-0.3,0-0.7,0-1,0.1
						c0,0.3,0.1,0.7,0.2,1c0.2,0.6,0.7,1,1.4,1.1l-0.1,0.2c-0.2,0-0.4,0-0.6-0.1c-0.7-0.5-1.4-0.9-2.3-0.5l-0.1-0.1l0.6-1.3
						c-0.3,0-0.5,0-0.6,0.1c-0.2,0.3-0.6,0.8-0.4,1c0.1,0.3,0.2,0.7,0.1,1.1c0,0.4,0,0.9,0,1.3C70.2,31.9,69.4,32,68.7,31.5"/>
					<path id="Path_6" class="st3" d="M75.2,16.7c0.6,0.3,0.9,0.6,0.9,1.2c0.1,1.9,0.2,3.8,0.3,5.7c0,0.7-0.1,1.3-0.1,2
						c0,0.5-0.2,0.7-0.7,0.6s-1.1-0.1-1.1-0.6c0-1.9,0.1-3.8,0.1-5.6c0,0,0,0,0-0.1C75.1,18.9,75.7,17.9,75.2,16.7"/>
					<path id="Path_7" class="st3" d="M64.7,15.5c-0.1,0.7-0.1,1.3-0.2,1.9c-0.1,1.5,0,2.9,0.7,4.3c0.4,0.8,0,2.8-0.6,3.5
						c-0.2,0.1-0.4,0.2-0.6,0.2c-0.2-0.1-0.3-0.3-0.4-0.5c-0.2-1.2-0.1-2.4,0.2-3.6c0.2-0.5,0.2-1,0-1.5c-0.4-1-0.1-1.9,0.4-2.8
						l-0.5-0.1C63.5,16.5,64,15.8,64.7,15.5"/>
					<path id="Path_8" class="st3" d="M71.3,30.5c0.5-0.7,1.3-0.8,2-0.1c0.3,0.3,0.6,0.7,1.1,0.7c0.2,0,0.4,0.5,0.7,0.8
						c-0.3,0.2-0.6,0.4-0.9,0.6c-0.8,0.2-1.1-0.1-1.6-1C72.4,30.9,72.1,30.4,71.3,30.5"/>
					<path id="Path_9" class="st3" d="M68.2,28.8c-0.9,0.2-1.1,0.9-1.2,1.5c-0.3,1.2-1.2,1.3-2,0.6c-0.3-0.2-0.4-0.6-0.2-0.9
						c0.2-0.3,0.4-0.5,0.8-0.2c0.4,0.3,0.6-0.1,0.8-0.4c0.3-0.5,0.7-0.9,1.3-0.8C68,28.7,68.1,28.8,68.2,28.8"/>
					<path id="Path_10" class="st3" d="M74.1,21.7v3.5L74,25.2l-1.2-2L74.1,21.7"/>
					<path id="Path_11" class="st3" d="M67,31.6c0.2-0.6,0.4-1.2,0.7-1.8c0.1-0.2,0.4-0.3,0.6-0.4c0.1,0.2,0.3,0.4,0.3,0.6
						C68.7,31.2,68.1,31.8,67,31.6"/>
					<path id="Path_12" class="st3" d="M70.3,22.3l2.1,1.2l-0.1,0.1c-0.6-0.1-1.2-0.1-1.7-0.2c-0.7-0.1-0.3-0.6-0.4-0.9L70.3,22.3"
						/>
					<path id="Path_13" class="st3" d="M65.4,29.1l-1,0.6c-0.2-0.2-0.3-0.5-0.4-0.8c0-0.1,0.3-0.3,0.4-0.4c0.4-0.2,0.8,0,0.9,0.4
						C65.4,29,65.4,29,65.4,29.1"/>
					<path id="Path_14" class="st3" d="M72.5,32.4c-0.4-0.3-0.8-0.6-1.1-1c-0.1-0.1,0-0.4,0-0.6c0.2,0.1,0.4,0.1,0.5,0.3
						c0.3,0.4,0.5,0.8,0.8,1.2L72.5,32.4"/>
					<path id="Path_15" class="st3" d="M75.1,31.1l-0.6-0.4c0.1-0.3,0.2-0.7,0.4-1C75.4,30.1,75.5,30.5,75.1,31.1"/>
					<path id="Path_16" class="st3" d="M75.2,15.3l1,1.3L76,16.7C75.7,16.3,74.9,16.2,75.2,15.3"/>
					<path id="Path_17" class="st3" d="M12.6,12l-0.9,0.8c-0.5-0.6-0.4-1.5-1.4-1.8l0.5,1.6l-0.2,0.1c-1.7-0.8-3-2.2-3.5-4
						C6.3,6.7,6.2,4.4,6.3,2.2c0.1-1.7,0.2-3.3,1-4.8c0.7-1.3,1.5-2.5,2.7-3.4c1.3-1,2.9-1.6,4.6-1.4c0.2,0,0.5-0.1,0.7-0.2
						c-0.7-0.7-1.6-0.6-2.4-0.5c0.1-0.8,1.5-1.3,2.5-1.4c1.4-0.2,2.7,0,3.8,1.2c-0.7,0-1.4,0.4-2-0.2c-0.2,0.9,0.1,1.2,1,1.1
						c0.3-0.1,0.7-0.1,1,0c1,0.4,1.9,0.8,3,1.3c-0.8,0.7-1.5,1.4-1.6,2.3c-0.1,0.5-0.1,1-0.1,1.4c0,0.9,0.5,1.4,1.4,1.5
						c0.2,0,0.5,0,0.8,0c0.5,0.1,1,0.1,1.4,0.2c0.5,0.1,0.9,0.4,1.1-0.3c0.4,0.1,0.7,0.5,0.7,0.9c0,1.4,0,2.9-0.1,4.3
						c-0.1,1-0.6,2-0.8,3c-0.4,1.8-1.3,3.5-2.6,4.8c-0.1,0.1-0.2,0.3-0.3,0.4c0,0.2,0,0.5,0,0.7c0.3-0.1,0.6,0,0.8-0.2
						c0.5-0.6,1-1.3,1.5-2c0.1-0.1,0.2-0.3,0.5-0.6v7.8c-0.5-0.8-1.1-1.4-1.5-2.2c-0.8-1.4-1.6-2.9-2.4-4.4c0-0.1-0.1-0.2-0.2-0.3
						c-0.2-0.1-0.5-0.2-0.7-0.4c0,0.3-0.1,0.6,0,0.8c0.3,0.5,0.6,0.9,1,1.4c-0.7-0.1-1-1.1-2-0.6l-0.4-3.5l-0.1,0
						C18.1,9.3,18,9.5,18,9.6c-0.1,0.6-0.1,1.3-0.1,1.9c0,0.7,0.4,1,1,1.3c0.7,0.4,1.4,0.9,2,1.4c0.3,0.2,0.5,0.5,0.7,0.8l-2.3-0.9
						l-0.1,0.1l0.3,0.6c-0.6-0.7-1.5-0.6-2.3-0.7c-0.2,0-0.4-0.2-0.4-0.4c-0.1-1.2-0.2-2.4-0.2-3.6c0-1,0.3-1.9,0.4-2.9
						c0-0.3-0.1-0.5-0.4-0.7c-0.1-0.1-0.5,0.1-0.6,0.3c-0.1,0.1-0.2,0.3-0.3,0.4c-0.6-0.5-0.7-0.4-1,0.2c-0.3,0.7-0.7,1.4-1,2.1
						c-0.2,0.4-0.3,0.7-0.4,1.1c0,0.1,0,0.3,0.1,0.4c0.1,0,0.3,0,0.4-0.1c0.2-0.2,0.4-0.4,0.6-0.6c-0.2,0.7-0.3,1.2-0.5,1.8
						c-0.4,1.8-0.2,3.4,0.9,5c0.4,0.5,0.6,0.5,0.9,0c-0.1-0.1-0.2-0.3-0.3-0.4c-0.3-0.9-0.8-1.8-0.9-2.7c-0.1-0.8,0.1-1.6,0.3-2.4
						c0.2-0.9,0.5-1.7,0.8-2.6l0.2,0c0.1,1.1,0.2,2.3,0.2,3.4c0,1.7,0.5,3.4,1.5,4.9c0.4,0.7,1.1,1,1.8,1c0.2,0,0.6-0.1,0.7-0.2
						c0.1-0.2,0-0.5-0.1-0.9c0.5-0.6,0.5-0.9,0-1.7c-0.1-0.1-0.1-0.3-0.2-0.4c1.9,0.4,3.5,1.7,4.4,3.5c0.5,1.1,1,2.2,1.4,3.3
						c0,0.2,0.1,0.4,0.1,0.6c-0.7-1.1-1.1-2.2-2.3-2.7c-0.1,0-0.3,0.1-0.5,0.2c0.9,1,1.9,1.8,2.1,3.2c-0.6-0.2-1.2-0.3-1.7-0.4
						c-0.9-0.2-1.4,0.3-1.1,1.2c0.4,1.5,1,2.9,2.8,3.1c0.1,0,0.3,0.1,0.4,0.3c0,0.1-0.1,0.3-0.2,0.3c-0.2,0.1-0.5,0.2-0.7,0.1
						c-0.4-0.2-0.8-0.6-1.2-0.8c-1.2-0.7-2.4-1.2-3.8-0.3c-0.7-1.2,0.6-1.7,0.9-2.6c-0.4-0.4-0.8-0.3-1.1,0.1c-1,1-1.4,2-0.3,2.9
						c-0.5,1.2-1,2.4,0,3.7c-1.7,0.4-3.4,0.3-5-0.7c0.6-1,1.1-2,0.9-3.2c-0.1-1.4-0.7-2.5-2-3.2c-1.3-0.6-2.4-0.1-3.1,0.6
						c-0.3,0.3-0.6,0.6-0.8,1c-1.3-0.5-2.2-2.8-1.8-4.4c0.2,0.4,0.4,0.8,0.6,1.1c0.4,0.6,0.6,0.6,1.2,0.2c0.3-0.2,0.6-0.4,0.8-0.6
						c0.4-0.4,1.2-0.4,1.1-1.3c-0.1-0.6,0-1.2-0.3-1.7c-0.5-0.9-0.5-0.9-1.8-0.6L8.4,18c0.4-0.2,0.7-0.4,1.1-0.6c0.1,0,0.2,0,0.2,0
						c0.3-0.1,0.8-0.1,0.8-0.6c-0.3-0.1-0.6-0.1-0.8-0.1c-0.1,0-0.3,0-0.6,0c0.1-0.3,0.3-0.6,0.5-0.8c0.7-0.6,1.5-1,2.5-0.6
						c0.1,0.1,0.3-0.1,0.5-0.1c-0.1-0.1-0.2-0.4-0.3-0.4c-0.3-0.1-0.6-0.2-0.9-0.3c0.2-1.2,1.4-1.3,2-2C13.3,11.9,12.8,12.2,12.6,12
						c0-0.1,0.1-0.2,0.1-0.4c0.3-1.2,0.7-2.3,1-3.5c0-0.1-0.1-0.3-0.2-0.5c-0.2,0.1-0.5,0.1-0.5,0.3c-0.4,1.2-0.7,2.4-0.9,3.6
						C12,11.7,12.1,12.1,12.6,12 M16.7,10.8c0.1,0.5,0.2,0.9,0.3,1.4c0,0.1,0.3,0.2,0.5,0.3c0.1-0.1,0.2-0.3,0.2-0.5
						c0-0.4,0-0.9,0-1.3c0.1-0.8,0.2-1.6,0.2-2.3c0-0.2-0.1-0.5-0.2-0.7c-0.2,0.2-0.4,0.3-0.6,0.5c0,0,0,0.1,0,0.2
						C16.9,9.1,16.8,9.8,16.7,10.8"/>
					<path id="Path_18" class="st3" d="M26.7,0.6c0.4,0.3,0.8,0.6,1.1,1c0.6,0.6,0.9,1.3,0.8,2.1c-0.1,3.1,0,6.2,0.5,9.3
						c0.2,1.9,0.2,3.8-0.1,5.7c-0.1,0.8-0.2,1-1.1,1c-0.6,0-1.1-0.1-1.7-0.3c-0.6-0.2-1-0.8-0.9-1.5c0-2.9,0-5.8,0-8.6
						c0-1.3,0.3-2.7,1-3.8c0.6-0.9,0.6-1.9,0.5-2.9c-0.1-0.6-0.2-1.1-0.3-1.7L26.7,0.6"/>
					<path id="Path_19" class="st3" d="M4.7,1.5L4.3,1L3.8,1.4c-0.3-1.3,0.9-2.9,2.1-3C5.8-0.4,5.6,0.7,5.5,1.8
						C5.4,4.3,5.3,6.9,6.2,9.3c0.1,0.2,0.1,0.3,0.2,0.5c1.2,1.9,0.9,3.9,0.3,5.9c-0.2,0.6-0.5,1.2-0.8,1.8c-0.3,0.5-0.9,0.9-1.5,0.8
						c-0.4-0.1-0.8-0.8-0.9-1.4c-0.1-1.2-0.2-2.4-0.2-3.6C3.4,12,3.6,10.8,4,9.6c0.2-0.6,0.3-1.3,0.1-2C4,7.3,4,7,3.9,6.7
						C3.1,4.8,3.7,3.2,4.7,1.5"/>
					<path id="Path_20" class="st2" d="M19.5,15.2c0,0.1,0.1,0.3,0.2,0.4c0.5,0.8,0.5,1,0,1.7c0,0.4,0.2,0.7,0.1,0.9
						c-0.1,0.2-0.5,0.2-0.7,0.2c-0.7,0.1-1.5-0.3-1.8-1c-0.9-1.4-1.4-3.1-1.5-4.9c0-1.1-0.1-2.3-0.2-3.4l-0.2,0
						c-0.2,0.9-0.6,1.7-0.8,2.6c-0.2,0.8-0.4,1.6-0.3,2.4c0.1,0.9,0.6,1.8,0.9,2.7c0.1,0.1,0.2,0.3,0.3,0.4c-0.4,0.6-0.6,0.6-0.9,0
						c-1.1-1.5-1.3-3.2-0.9-5c0.1-0.6,0.3-1.1,0.5-1.8c-0.2,0.2-0.4,0.4-0.6,0.6c-0.1,0.1-0.3,0.1-0.4,0.1c0-0.1-0.1-0.3-0.1-0.4
						c0.1-0.4,0.3-0.7,0.4-1.1c0.3-0.7,0.7-1.4,1-2.1c0.3-0.6,0.4-0.7,1-0.2c0.1-0.2,0.2-0.3,0.3-0.4c0.2-0.1,0.5-0.3,0.6-0.3
						c0.2,0.2,0.3,0.4,0.4,0.7c-0.1,1-0.4,1.9-0.4,2.9c0,1.2,0.1,2.4,0.2,3.7c0.1,0.2,0.2,0.3,0.4,0.4c0.8,0.1,1.6,0,2.3,0.7
						L19.5,15.2"/>
					<path id="Path_21" class="st3" d="M24.1,32.3c-0.8,0-1.4-0.4-1.8-1c-0.4-0.6-0.8-1.2-1-1.9c-0.3-0.8-0.8-1.2-1.7-1.2
						c-0.2,0-0.4-0.1-0.5-0.3c-0.1-0.1,0.1-0.4,0.2-0.5c0.5-0.2,1-0.5,1.5-0.5c1.2,0,2.4,0.7,3,1.8c0.1,0.2,0.6,0.5,0.8,0.5
						c0.6-0.2,0.9,0.2,1.2,0.4c0.1,0.1,0.2,0.2,0.3,0.3c0.9,0.9,0.7,1.5-0.4,2C25.1,32.1,24.6,32.3,24.1,32.3"/>
					<path id="Path_22" class="st3" d="M12.9,25.1c-1.4,0-1.8,1-2.2,2c-0.2,0.6-0.4,1.2-0.6,1.7c-0.4,0.9-1.8,1.4-2.7,0.8
						c-0.3-0.2-0.7-0.5-1-0.7c-0.6-0.4-0.6-1-0.4-1.5c0.2-0.5,0.7-0.9,1.2-1c0.2,0,0.3,0.1,0.4,0.2c0.2,0.3,0.6,0.4,0.9,0.2
						c0.1,0,0.1-0.1,0.1-0.1c0.4-0.4,0.8-0.9,1.2-1.4c0.6-0.7,1.2-1.2,2.1-0.9c0.3,0.1,0.6,0.3,0.9,0.5C12.9,25,12.9,25,12.9,25.1"
						/>
					<path id="Path_23" class="st3" d="M10.2,30.2c0.8-0.5,0.9-1.2,1.1-2c0.2-0.6,0.4-1.2,0.7-1.8c0.2-0.4,0.7-0.7,1.1-0.5
						c0.5,0.1,0.7,0.5,0.7,1c0,1.2-0.1,2.3-1,3.2C12.1,30.6,11,30.7,10.2,30.2"/>
					<path id="Path_24" class="st3" d="M7.5,25.4c-0.6,0.4-1.2,0.7-1.7,1.1c-0.1,0-0.2,0.1-0.3,0.1c-0.3,0-1.1-0.9-1.2-1.3
						c-0.1-0.5,0.2-0.9,0.7-1c0,0,0.1,0,0.1,0c0.3,0,0.5-0.1,0.8-0.1C6.3,24,6.8,24.2,7,24.6C7.2,24.9,7.3,25.1,7.5,25.4"/>
					<path id="Path_25" class="st3" d="M21.9,32c-0.7-0.4-1.5-0.8-2.1-1.3c-0.4-0.4-0.7-0.9-0.8-1.4c-0.1-0.2,0.1-0.6,0.2-0.6
						c0.3,0,0.7,0,0.9,0.2c0.5,0.6,1,1.3,1.4,2c0.2,0.3,0.4,0.7,0.6,1L21.9,32z"/>
					<path id="Path_26" class="st3" d="M26.4,29.5l-1.3-1.1c0.8-0.5,0.7-1.3,0.7-2.2c0.6,0.3,1.1,0.9,1.2,1.5
						C27.2,28.3,27,29,26.4,29.5"/>
					<path id="Path_27" class="st3" d="M26.1-2c1.7,0.6,2.1,2,2.7,3.3c-0.8-0.5-1.5-1.1-2.3-1.7c-0.1-0.1-0.2-0.2-0.2-0.3
						C26.3-1,26.2-1.4,26.1-2"/>
					<path id="Path_28" class="st3" d="M43.6,15.5c0.2-0.5,0.4-1,0.5-1.4c0-0.1-0.1-0.3-0.1-0.5c-0.1,0.1-0.4,0.1-0.4,0.2
						c-0.3,0.9-0.5,1.7-0.7,2.6c0,0.2,0.1,0.4,0.2,0.7l-0.5,0.4c-0.4-0.4-0.3-1.1-1.1-1.3l0.4,1.4c-1.3-0.5-2.4-1.7-2.8-3.1
						c-0.9-2.6-1-5.4-0.2-8c0.7-2.2,2.2-3.9,4.6-4.5C44,2,44.4,2,44.8,2c0.2,0,0.4,0,0.7,0c-0.5-0.8-1.2-0.5-1.9-0.6
						c0.9-1.3,3.6-1.4,4.7-0.1h-1.5c0,0.7,0.1,0.8,0.9,0.7c1.1-0.1,1.9,0.6,2.9,1.1c-0.8,0.6-1.2,1.5-1.3,2.4
						c-0.1,1.1,0.4,1.6,1.5,1.6c0.4,0,0.9,0.1,1.3,0.2c0.3,0,0.5,0,0.8,0L53,6.8c0.1,0.2,0.2,0.5,0.3,0.8c0.3,2.6-0.3,5-1.3,7.4
						c-0.3,0.8-1,1.4-1.5,2.1c-0.1,0.2-0.2,0.4-0.3,0.6l0,0c-0.3-0.4-0.5-0.8-0.8-1.2c-0.2-0.1-0.4-0.3-0.6-0.3c0,0.2,0,0.5,0,0.7
						c0.1,0.3,0.3,0.5,0.5,0.8c-1.3-0.3-1.6-0.6-1.6-2.1c0-0.2,0-0.5,0-0.9c-0.5,0.7-0.5,2.3-0.1,2.7c0.4,0.3,0.9,0.5,1.3,0.9
						c0.4,0.3,0.7,0.6,1.2,1c-1.8-0.5-1.8-0.5-1.8-0.4c-0.4-0.1-0.9-0.1-1.3-0.2c-0.4,0-0.5-0.1-0.6-0.5c-0.2-1.5-0.2-3,0.1-4.5
						c0.1-0.3,0.2-0.7-0.2-0.8c-0.2-0.1-0.5,0.2-0.9,0.4c-0.3-0.2-0.6,0-0.8,0.4c-0.2,0.6-0.5,1.1-0.8,1.7
						C43.9,15.3,43.7,15.4,43.6,15.5L43.6,15.5z M46.4,16L46.4,16c0,0.3,0,0.5,0.1,0.8c0.1,0.2,0.3,0.3,0.5,0.5
						c0.1-0.2,0.2-0.3,0.2-0.5c0.1-0.9,0.1-1.8,0.2-2.7c0-0.2-0.1-0.4-0.2-0.5c-0.2,0.1-0.4,0.3-0.5,0.5
						C46.6,14.7,46.5,15.4,46.4,16"/>
					<path id="Path_29" class="st3" d="M43.6,15.5l0.1,0.8l0.5-0.2c0,0,0.1,0.1,0.1,0.2c-0.1,0.5-0.2,1-0.3,1.5
						c-0.2,1.2,0.2,2.1,0.8,3.1c0.2,0.4,0.4,0.3,0.7,0c-1.6-2-0.7-4,0-6c0.1,1.1,0.1,2.2,0.2,3.3c0.1,1.1,0.5,2.2,1.3,3.1
						c0.4,0.5,0.9,0.5,1.5,0.5c0.1,0,0.2-0.1,0.3-0.2c-0.3-0.7,0.7-1.4-0.2-2c2.2-0.1,4.2,3.5,4.4,5.2c-1.4-1.8-1.4-1.8-1.9-1.6
						l1.6,2.3l-0.2,0.2c-0.3-0.1-0.7-0.2-1-0.3c-0.9-0.2-1.3,0.2-1,1.1c0.3,1.1,0.8,2,2.2,2.2c0.1,0,0.1,0,0.2,0.1
						c0,0,0.1,0.1,0.1,0.1c-0.2,0.4-0.5,0.5-0.9,0.2c-0.4-0.3-0.8-0.5-1.2-0.7c-0.8-0.4-1.6-0.6-2.5,0c-0.5-0.9,0.5-1.3,0.7-2
						c-0.5-0.4-0.8-0.1-1.1,0.3c-0.6,0.7-0.6,1.3,0,2c-0.4,0.9-0.8,1.8-0.1,2.7c-0.9,0.5-2.8,0.2-3.7-0.5c0.5-0.9,0.9-1.9,0.6-3
						c-0.2-1-1-1.8-2.1-2c-1-0.2-1.6,0.5-2.2,1.2c0,0-0.1,0.1-0.1,0.2c0,0-0.1,0.1-0.1,0.1c-1.1-0.6-1.6-1.8-1.3-3.3
						c0.2,0.3,0.3,0.6,0.5,0.9c0.1,0.2,0.4,0.4,0.7,0.2c0.1,0,0.1-0.1,0.2-0.1c0.2-0.2,0.4-0.3,0.6-0.4c0.3-0.2,0.7-0.5,0.8-0.8
						c0.2-0.7,0-1.5-0.4-2c-0.1-0.2-0.7-0.1-1-0.2c0.2-0.7,1.3-0.1,1.5-1h-1c0.1-0.7,1-1.3,1.9-1.2c0.2,0,0.4,0,0.7,0
						c-0.2-0.1-0.4-0.3-0.5-0.4c-0.1,0-0.2-0.1-0.4-0.1c0.2-0.9,1-1,1.6-1.6l-0.6-0.3C43.5,16.4,43.5,15.9,43.6,15.5L43.6,15.5"/>
					<path id="Path_30" class="st3" d="M54,8.3c0.8,0.3,1.4,1,1.5,1.9c0,1.7,0,3.4,0.1,5.2c0,1.1,0.3,2.1,0.3,3.2
						c0,1.2-0.1,2.5-0.2,3.7c0,0.2-0.2,0.4-0.4,0.4c-0.5,0-1.1,0-1.6-0.1c-0.4-0.1-0.7-0.6-0.7-1c0-2.3-0.1-4.5,0-6.8
						c0-0.9,0.2-1.8,0.7-2.7c0.6-1.1,0.5-2.1,0.3-3.2C54.1,8.7,54.1,8.5,54,8.3"/>
					<path id="Path_31" class="st3" d="M36.9,8.5l-0.4,0.3c0-0.2,0-0.4,0-0.6c0.2-0.8,0.8-1.4,1.6-1.7C38,7.7,37.9,8.9,37.9,10
						c0,1.4-0.1,2.9,0.4,4.3c0.1,0.4,0.3,0.8,0.5,1.1c1,2,0.3,3.9-0.7,5.6c-0.2,0.3-0.6,0.5-1,0.4c-0.3-0.2-0.6-0.5-0.7-0.9
						c-0.3-1.9-0.3-3.7,0.3-5.5c0.3-0.7,0.3-1.5,0-2.2c-0.5-1.4-0.2-2.7,0.4-3.9c0.1-0.1,0-0.4,0-0.6L36.9,8.5"/>
					<path id="Path_32" class="st3" d="M52.2,32.5c-0.5,0-1.1-0.3-1.3-0.8c-0.3-0.5-0.6-1-0.8-1.5c-0.2-0.5-0.7-0.9-1.3-0.9
						c-0.2,0-0.3-0.1-0.5-0.2c0.1-0.2,0.2-0.3,0.3-0.5c0.7-0.6,2.3-0.2,3,0.7c0.3,0.4,0.5,0.8,1.2,0.8c0.4,0,0.8,0.7,1.2,1.2
						c0.1,0.1-0.2,0.6-0.3,0.7C53.1,32.2,52.7,32.4,52.2,32.5"/>
					<path id="Path_33" class="st3" d="M43.5,26.9c-0.9,0-1.3,0.6-1.5,1.3c-0.2,0.5-0.4,0.9-0.5,1.4c-0.2,0.8-0.8,1-1.5,1.1
						c-0.8,0-1.9-0.9-1.8-1.7c0-0.5,0.4-0.9,0.9-0.9c0.2,0,0.4,0.1,0.5,0.2c0.5,0.3,0.8,0,1-0.4c0.3-0.4,0.7-0.8,1-1.2
						C42.2,26.2,42.9,26.3,43.5,26.9"/>
					<path id="Path_34" class="st3" d="M50.2,17.7c0.4,0.4,0.7,0.3,1-0.1c0.4-0.6,0.8-1.1,1.3-1.8v5.8c-0.3-0.4-0.6-0.8-0.8-1.2
						C51.1,19.5,50.7,18.6,50.2,17.7L50.2,17.7"/>
					<path id="Path_35" class="st3" d="M41.6,30.9c0.2-0.5,0.4-1,0.6-1.4c0.2-0.5,0.4-1.1,0.6-1.6c0.1-0.3,0.5-0.5,0.8-0.4
						c0,0,0.1,0,0.1,0c0.2,0.1,0.4,0.4,0.4,0.7c0,0.6-0.2,1.3-0.4,1.9c-0.3,0.8-1.1,1.2-1.9,0.9C41.8,31,41.7,31,41.6,30.9"/>
					<path id="Path_36" class="st3" d="M39.4,27.2c-0.4,0.2-0.7,0.4-1.1,0.6c-0.2,0.1-0.5,0.2-0.6,0.2c-0.3-0.3-0.5-0.6-0.7-1
						c0-0.1,0.3-0.5,0.5-0.6C38.7,26.1,38.6,25.9,39.4,27.2"/>
					<path id="Path_37" class="st3" d="M50.3,32.2c-0.6-0.4-1.1-0.7-1.7-1.1c-0.2-0.1-0.3-0.3-0.3-0.4c-0.1-0.3-0.4-0.7,0-1
						c0.4-0.2,0.7,0.1,0.8,0.4c0.4,0.6,0.8,1.3,1.2,1.9L50.3,32.2"/>
					<path id="Path_38" class="st3" d="M53.6,27.8c0.9,0.6,1.1,1.6,0.3,2.4L53,29.5L53.6,27.8"/>
					<path id="Path_39" class="st3" d="M53.7,6.2c1.2,0.4,1.6,1.4,2.1,2.5c-0.6-0.4-1.2-0.9-1.8-1.3C53.7,7.1,53.8,6.7,53.7,6.2"/>
					<path id="Path_40" class="st2" d="M16.7,10.8c0.1-0.9,0.3-1.7,0.4-2.4c0-0.1,0-0.1,0-0.2c0.2-0.2,0.4-0.3,0.6-0.5
						c0.1,0.2,0.2,0.5,0.2,0.7c0,0.8-0.2,1.6-0.2,2.3c0,0.4,0,0.9,0,1.3c0,0.2-0.1,0.3-0.2,0.5c-0.2-0.1-0.5-0.1-0.5-0.3
						C16.8,11.7,16.7,11.2,16.7,10.8"/>
					<path id="Path_41" class="st2" d="M12.6,12c-0.5,0.1-0.6-0.4-0.5-0.6c0.3-1.2,0.6-2.4,0.9-3.6c0-0.1,0.3-0.2,0.5-0.3
						c0.1,0.2,0.2,0.4,0.2,0.5c-0.3,1.2-0.7,2.3-1,3.5C12.7,11.8,12.6,11.9,12.6,12L12.6,12"/>
					<path id="Path_42" class="st2" d="M46.4,16c0.1-0.7,0.2-1.4,0.3-2c0-0.2,0.3-0.3,0.5-0.5c0.1,0.2,0.1,0.3,0.2,0.5
						c0,0.9-0.1,1.8-0.2,2.7c0,0.2-0.1,0.4-0.2,0.5c-0.2-0.2-0.4-0.3-0.5-0.5C46.4,16.5,46.4,16.3,46.4,16L46.4,16"/>
				</g>
			</g>
		</g>
	</g>
	<g id="Group_44" transform="translate(-68 -18)">
		<g class="st4">
			<path class="st3" d="M0.1,8.7c0,0.2-0.1,0.6-0.3,1.1c-0.1,0.2-0.2,0.5-0.3,0.6c-0.1,0.2-0.2,0.3-0.3,0.5
				c-0.5,0.7-1.3,1.5-2.5,2.2c-1.2,0.8-2.3,1.4-3.4,2c-0.8,0.4-1.5,0.7-2.3,1.1c-0.8,0.3-1.5,0.6-2.3,0.8c0,0.1-0.1,0.2-0.1,0.4v0.4
				c0,0.2,0,0.5,0,0.8c0,0.4,0.1,0.8,0.1,1.3s0.1,1,0.1,1.4s0,0.7,0,1c0,0.3-0.1,0.5-0.2,0.6s-0.4,0.2-0.6,0.2
				c-0.8,0-1.2-1.7-1.2-5.1v-0.3c0-0.4,0-0.8,0.1-1.3s0.1-1,0.2-1.7c0-0.2,0.1-0.4,0.1-0.6c0-0.2,0.1-0.5,0.1-0.7
				c0.1-0.5,0.1-0.9,0.2-1.3s0.1-0.7,0.2-1c0-0.1,0.1-0.2,0.1-0.3s0.1-0.3,0.1-0.4c0.1-0.3,0.1-0.6,0.2-0.9c0.1-0.2,0.2-0.5,0.3-0.7
				c0.1-0.2,0.3-0.4,0.5-0.6c0.1,0,0.2-0.1,0.4-0.1c0.3,0,0.5,0.1,0.6,0.2S-10,8.8-10,9.1c0,0,0,0.1-0.1,0.3s-0.1,0.4-0.2,0.6
				c-0.1,0.2-0.1,0.4-0.2,0.6c-0.1,0.2-0.1,0.3-0.1,0.3c-0.1,0.1-0.1,0.4-0.2,0.6c0,0.2-0.1,0.4-0.1,0.6c0,0.2-0.1,0.4-0.1,0.7
				c0,0.2-0.1,0.5-0.1,0.7s-0.1,0.5-0.1,0.7c0,0.2,0,0.4-0.1,0.6s0,0.4,0,0.5c0.2-0.1,0.5-0.2,0.8-0.4s0.7-0.3,1.1-0.5
				c0.8-0.4,1.6-0.7,2.2-1c0.7-0.3,1.3-0.7,1.9-1c0.4-0.2,0.8-0.5,1.2-0.8s0.8-0.6,1.1-1C-2,9.9-1.6,9.2-1.6,8.6
				c0-0.3-0.3-0.5-0.9-0.7c-0.3-0.1-0.6-0.1-0.9-0.2S-4,7.6-4.3,7.6c-0.3-0.1-0.6-0.1-0.8-0.1c-0.3,0-0.5,0-0.8,0
				c-1.4,0-2.9,0.2-4.5,0.5c-0.8,0.2-1.8,0.5-3.2,1C-13.7,8.9-13.8,9-13.9,9c-0.2,0-0.3-0.1-0.4-0.1s-0.1-0.2-0.1-0.4
				c0-0.4,0.1-0.6,0.3-0.8s0.5-0.4,0.9-0.6c0.4-0.2,1.1-0.4,1.9-0.5c0.4-0.1,0.9-0.2,1.3-0.2c0.4-0.1,0.9-0.1,1.3-0.2
				c0.9-0.1,1.6-0.2,2-0.2c0.4,0,0.8,0,1.1,0S-4.9,6-4.5,6c0.3,0,0.7,0.1,1,0.1c0.3,0.1,0.7,0.1,1,0.2c0.7,0.2,1.3,0.4,1.8,0.8
				S0.1,8,0.1,8.7z"/>
			<path class="st3" d="M17.1,6.7c0,0.1,0,0.1,0,0.2c0,0.1-0.1,0.2-0.1,0.3c0,0.1-0.1,0.2-0.2,0.3c-0.1,0.1-0.1,0.1-0.2,0.2
				c-0.2,0.1-0.4,0.2-0.5,0.2C15.8,7.9,15.6,8,15.4,8c-0.7,0.1-1.3,0.2-2,0.3c-0.6,0.1-1.2,0.2-1.8,0.2s-1.1,0.1-1.6,0.1
				c-0.5,0-0.9,0-1.2,0c-0.2,0-0.4,0-0.5,0s-0.3,0-0.4,0c-0.1,0-0.2,0-0.4,0c-0.1,0-0.3,0-0.4,0c-0.3,0-0.6,0-0.8,0s-0.4,0-0.6,0
				C5.7,8.9,5.6,9.2,5.6,9.6s-0.1,0.7-0.1,1.1s0,0.8-0.1,1.1c0,0.4,0,0.7-0.1,1C5.5,12.9,5.6,13,5.7,13c0.1,0.1,0.2,0.1,0.3,0.1
				s0.2,0,0.3,0s0.2,0,0.4,0c0.2,0,0.4,0,0.6,0s0.4,0,0.6,0c0.2,0,0.4,0,0.6,0c0.2,0,0.4-0.1,0.6-0.1c0.3-0.1,0.5-0.1,0.7-0.1
				c0.2,0,0.4,0,0.6,0s0.4,0,0.6,0c0.2,0,0.4-0.1,0.7-0.2c0.2-0.1,0.4-0.1,0.5-0.2c0.1-0.1,0.3-0.1,0.4-0.2c0.1,0,0.3-0.1,0.4-0.1
				c0.1,0,0.3,0,0.4,0c0.1,0,0.2,0,0.3,0.1s0.1,0.2,0.2,0.3c0,0.1,0.1,0.3,0.1,0.4c0,0.1,0,0.3,0,0.4c0,0.2-0.1,0.3-0.2,0.4
				s-0.2,0.2-0.4,0.3c-0.1,0.1-0.3,0.1-0.5,0.2c-0.2,0-0.3,0.1-0.4,0.1c-0.2,0-0.4,0.1-0.6,0.1c-0.3,0-0.6,0-0.8,0.1s-0.6,0-0.9,0
				c-0.3,0-0.5,0-0.7,0.1c-0.5,0.1-1,0.1-1.5,0.1c-0.5,0-1.1,0-1.6,0c-0.3,0-0.5,0-0.7,0.1c-0.2,0-0.4,0.1-0.7,0.2
				c-0.1,0-0.1,0.1-0.2,0.3s-0.1,0.4-0.2,0.7c-0.1,0.3-0.1,0.5-0.2,0.9c-0.1,0.3-0.1,0.6-0.2,0.9c-0.1,0.4-0.2,0.8-0.2,1.2
				s-0.1,0.6-0.1,0.8c0,0,0.1,0.1,0.2,0.1s0.1,0.1,0.2,0.1c0.2,0,0.4,0,0.7,0s0.5,0,0.8,0c0.3,0,0.6,0,0.8,0s0.5,0,0.7,0
				c0.5,0,1-0.1,1.5-0.1c0.5,0,1-0.1,1.5-0.1s0.9-0.1,1.4-0.2s0.8-0.1,1.1-0.2c0,0,0,0,0.1,0s0.2-0.1,0.4-0.1c0.2,0,0.3-0.1,0.5-0.1
				s0.4-0.1,0.5-0.1c0.2,0,0.3-0.1,0.4-0.1s0.2,0,0.1,0c0.1,0,0.2,0,0.3,0.1c0.1,0.1,0.2,0.1,0.3,0.2s0.1,0.2,0.2,0.3
				s0.1,0.3,0.1,0.4c0,0.1,0,0.1-0.1,0.2s-0.1,0.2-0.2,0.3c-0.1,0.1-0.2,0.2-0.4,0.3s-0.3,0.1-0.4,0.2c-0.4,0.1-0.7,0.1-1,0.2
				s-0.6,0.1-1,0.1c-0.3,0-0.7,0.1-1.1,0.1s-0.8,0.1-1.2,0.1c-0.6,0.1-1.1,0.1-1.6,0.2s-1.1,0.1-1.6,0.2c-0.5,0.1-0.9,0.1-1.3,0.2
				c-0.4,0-0.7,0.1-0.8,0.1c-0.2,0-0.3,0.1-0.5,0.1s-0.4,0.1-0.6,0.1c-0.2,0-0.4,0.1-0.5,0.1s-0.3,0.1-0.4,0.1c-0.2,0-0.4,0-0.5-0.1
				s-0.3-0.1-0.4-0.3c-0.1-0.1-0.2-0.3-0.2-0.5S2,20.9,2,20.5c0-0.3,0-0.6,0.1-1c0.1-0.4,0.2-0.8,0.3-1.4c0.1-0.4,0.2-0.9,0.3-1.3
				S2.9,16,3,15.5s0.2-0.9,0.2-1.3s0.1-0.9,0.1-1.3c0-0.3,0-0.6,0.1-1s0.1-0.7,0.1-1s0.1-0.7,0.1-1s0-0.7,0-1c0-0.1,0-0.1,0-0.2
				c0-0.1,0-0.2,0-0.2c0-0.3,0.1-0.6,0.3-1C4,7.4,4.1,7.3,4.2,7.2S4.5,7,4.7,6.9S5,6.8,5.2,6.7c0.2-0.1,0.3-0.1,0.4-0.1
				c0.1,0,0.2,0,0.4,0c0.2,0,0.4,0,0.6,0.1s0.4,0.1,0.6,0.1c0.2,0,0.3,0,0.4,0c0.1,0,0.3,0,0.5,0c0.2,0,0.4,0,0.7,0s0.5,0,0.8,0
				s0.5,0,0.8,0c0.5,0,1.1-0.1,1.5-0.1s1-0.1,1.5-0.2c0.3-0.1,0.6-0.1,0.9-0.2s0.5-0.2,0.8-0.2C15,6.1,15.3,6,15.5,6
				c0.2-0.1,0.5-0.1,0.8-0.1c0.1,0,0.2,0,0.3,0.1c0.1,0.1,0.2,0.1,0.2,0.2C16.9,6.2,17,6.3,17,6.4C17,6.5,17.1,6.6,17.1,6.7z"/>
			<path class="st3" d="M33.6,7.6c0,0.2,0,0.4-0.1,0.5c0,0.1-0.1,0.2-0.2,0.2s-0.2,0.1-0.3,0.1s-0.2,0-0.3,0c-0.2,0-0.5,0-0.7,0
				s-0.4,0-0.6,0s-0.4,0-0.6,0s-0.5,0-0.8,0c-0.3,0-0.6,0-1.1,0.1c-0.4,0.1-0.8,0.1-1.2,0.2s-0.8,0.2-1.1,0.2S26.3,9,26.1,9.1
				c-0.1,0-0.1,0.1-0.2,0.1s-0.1,0.1-0.1,0.2c0,0.1-0.1,0.2-0.1,0.2s0,0.2,0,0.2c-0.1,0.8-0.1,1.5-0.2,2.2s-0.2,1.5-0.2,2.2
				c-0.1,0.7-0.1,1.4-0.2,2.2c0,0.7-0.1,1.4-0.1,2.1c0,0.1,0,0.3,0,0.5c0,0.2,0.1,0.5,0.1,0.7s0.1,0.5,0.1,0.7c0,0.2,0,0.3,0,0.3
				c0,0.1,0,0.3-0.1,0.4c0,0.1-0.1,0.3-0.2,0.4S24.9,22,24.8,22c-0.1,0.1-0.2,0.1-0.4,0.1c-0.1,0-0.2,0-0.3-0.1s-0.2-0.1-0.3-0.2
				c-0.1-0.1-0.2-0.2-0.3-0.3c-0.1-0.1-0.1-0.2-0.2-0.4c-0.1-0.2-0.1-0.4-0.1-0.6c0-0.2-0.1-0.5-0.1-0.7s0-0.5,0-0.7
				c0-0.2,0-0.5,0-0.7s0-0.4,0-0.5c0-0.1,0-0.2,0-0.3c0-0.2,0-0.5,0.1-1c0-0.5,0.1-1,0.2-1.6s0.1-1.2,0.2-1.8
				c0.1-0.6,0.1-1.2,0.2-1.7s0.1-0.9,0.2-1.2c0-0.3,0.1-0.5,0.1-0.5c0-0.1,0-0.2-0.1-0.2s-0.1-0.1-0.2-0.1s-0.1,0-0.2,0
				s-0.1,0-0.1,0c-0.3,0-0.6,0-1,0.1c-0.4,0.1-0.9,0.1-1.4,0.2s-1,0.1-1.5,0.2c-0.5,0.1-1,0.1-1.4,0.1c-0.1,0-0.2,0-0.3,0
				c-0.1,0-0.2,0-0.3,0c-0.1,0-0.2-0.1-0.3-0.1c-0.1-0.1-0.2-0.1-0.3-0.2c0-0.1,0-0.2,0-0.3c0-0.1,0-0.2,0-0.4
				c0-0.1,0.1-0.2,0.1-0.3s0.2-0.2,0.3-0.2c0.3-0.1,0.7-0.1,1.1-0.2s0.8-0.1,1.2-0.1s0.8-0.1,1.2-0.1c0.4,0,0.8-0.1,1.1-0.1
				c0.2,0,0.5-0.1,0.8-0.1c0.3,0,0.7-0.1,1-0.1c0.3-0.1,0.7-0.1,1-0.2s0.6-0.1,0.8-0.1c0.4-0.1,0.9-0.2,1.4-0.3
				c0.5-0.1,1-0.2,1.5-0.3c0.5-0.1,1-0.2,1.5-0.3s1-0.1,1.4-0.1c0,0,0.1,0,0.3,0c0.1,0,0.3,0,0.4,0c0.2,0,0.3,0,0.5,0.1
				c0.2,0,0.3,0.1,0.5,0.1c0.1,0,0.2,0.1,0.2,0.1C33.4,7,33.4,7,33.5,7.1c0,0.1,0.1,0.2,0.1,0.3C33.6,7.5,33.6,7.6,33.6,7.6z"/>
			<path class="st3" d="M59.1,15c0,0.4-0.3,1-0.9,1.6c-0.2,0.2-0.3,0.3-0.5,0.5s-0.5,0.4-0.7,0.6c-0.2,0.2-0.5,0.4-0.7,0.6
				s-0.5,0.4-0.7,0.5c-0.7,0.5-1.4,1-2.1,1.5c-0.8,0.5-1.5,0.9-2.3,1.2s-1.5,0.6-2.3,0.8c-0.8,0.2-1.5,0.3-2.2,0.3
				c-0.8,0-1.4-0.1-2-0.3c-0.6-0.2-1-0.5-1.4-0.9s-0.7-0.9-0.8-1.5c-0.2-0.6-0.3-1.2-0.3-1.9c0-0.6,0.1-1.3,0.2-2s0.3-1.3,0.6-1.9
				s0.5-1.3,0.9-1.9s0.7-1.1,1.1-1.6c0.2-0.3,0.5-0.6,0.8-0.9c0.3-0.3,0.6-0.6,1-0.9c0.3-0.3,0.7-0.6,1-0.8c0.3-0.3,0.7-0.5,1-0.7
				c0.2-0.1,0.5-0.3,0.8-0.4c0.3-0.2,0.7-0.3,1.1-0.5s0.8-0.3,1.1-0.4s0.7-0.2,1-0.2c0.4,0,0.8,0,1,0.1c0.3,0.1,0.5,0.2,0.7,0.3
				c0.1,0.1,0.2,0.2,0.3,0.3s0.2,0.3,0.3,0.5c0.1,0.2,0.2,0.3,0.3,0.5c0.1,0.2,0.1,0.3,0.1,0.4s-0.1,0.3-0.2,0.5
				c-0.1,0.2-0.2,0.5-0.4,0.8c-0.2,0.3-0.3,0.5-0.5,0.7c-0.2,0.2-0.3,0.4-0.3,0.5C54,10.8,53.7,11,53.4,11c-0.3,0-0.5-0.1-0.7-0.3
				s-0.2-0.4-0.2-0.7c0-0.1,0-0.2,0.2-0.4c0.1-0.2,0.3-0.4,0.5-0.7s0.4-0.5,0.6-0.7S54,7.9,54,7.9c-0.1-0.1-0.3-0.2-0.5-0.2
				c-0.2-0.1-0.4-0.1-0.6-0.1c-0.3,0-0.6,0.1-1,0.2S51.2,8,50.8,8.2c-0.4,0.2-0.8,0.4-1.1,0.6s-0.7,0.4-0.9,0.6
				c-0.7,0.6-1.4,1.2-2,1.9s-1.1,1.5-1.5,2.3c-0.2,0.4-0.3,0.7-0.5,1.1c-0.2,0.4-0.3,0.8-0.4,1.2s-0.2,0.8-0.2,1.2s-0.1,0.8-0.1,1.1
				c0,0.4,0,0.8,0.1,1.2c0.1,0.4,0.2,0.7,0.5,0.9c0.2,0.3,0.5,0.5,0.9,0.6c0.4,0.1,0.8,0.2,1.3,0.2c0.6,0,1.2-0.1,1.8-0.2
				s1.2-0.4,1.8-0.6c0.6-0.3,1.2-0.6,1.8-0.9c0.6-0.3,1.1-0.7,1.7-1.1s1-0.8,1.5-1.1s0.9-0.7,1.3-1.1c0.2-0.1,0.3-0.3,0.5-0.4
				c0.2-0.2,0.4-0.3,0.5-0.5s0.3-0.3,0.5-0.5c0.2-0.2,0.3-0.3,0.4-0.4C58.9,14.4,59.1,14.7,59.1,15z"/>
			<path class="st3" d="M73.6,6.7c0,0.1,0,0.1-0.1,0.2c0,0.1-0.1,0.2-0.1,0.3c-0.1,0.1-0.1,0.2-0.2,0.3c-0.1,0.1-0.1,0.1-0.2,0.2
				c-0.2,0.1-0.4,0.2-0.5,0.2S72.2,8,72,8c-0.7,0.1-1.3,0.2-2,0.3c-0.6,0.1-1.2,0.2-1.8,0.2s-1.1,0.1-1.6,0.1c-0.5,0-0.9,0-1.2,0
				c-0.2,0-0.3,0-0.5,0s-0.3,0-0.4,0c-0.1,0-0.2,0-0.4,0c-0.1,0-0.2,0-0.4,0c-0.3,0-0.6,0-0.8,0s-0.4,0-0.6,0
				c-0.1,0.2-0.2,0.6-0.2,0.9c0,0.4-0.1,0.7-0.1,1.1s0,0.8,0,1.1c0,0.4,0,0.7-0.1,1c0.1,0.1,0.3,0.2,0.4,0.2
				c0.1,0.1,0.2,0.1,0.3,0.1c0.1,0,0.2,0,0.3,0s0.2,0,0.4,0c0.2,0,0.4,0,0.6,0c0.2,0,0.4,0,0.7,0s0.4,0,0.6,0c0.2,0,0.4-0.1,0.6-0.1
				c0.3-0.1,0.5-0.1,0.7-0.1c0.2,0,0.4,0,0.6,0s0.4,0,0.6,0c0.2,0,0.4-0.1,0.7-0.2c0.2-0.1,0.3-0.1,0.5-0.2c0.2-0.1,0.3-0.1,0.4-0.2
				c0.1,0,0.3-0.1,0.4-0.1c0.1,0,0.3,0,0.4,0c0.1,0,0.2,0,0.3,0.1s0.1,0.2,0.2,0.3c0,0.1,0.1,0.3,0.1,0.4c0,0.1,0,0.3,0,0.4
				c0,0.2-0.1,0.3-0.2,0.4s-0.2,0.2-0.4,0.3c-0.2,0.1-0.3,0.1-0.5,0.2c-0.2,0-0.3,0.1-0.4,0.1c-0.2,0-0.4,0.1-0.7,0.1
				c-0.3,0-0.6,0-0.8,0.1c-0.3,0-0.6,0-0.8,0c-0.3,0-0.5,0-0.7,0.1c-0.5,0.1-1,0.1-1.5,0.1c-0.5,0-1.1,0-1.6,0c-0.3,0-0.5,0-0.7,0.1
				c-0.2,0-0.4,0.1-0.7,0.2c0,0-0.1,0.1-0.2,0.3s-0.1,0.4-0.2,0.7c-0.1,0.3-0.1,0.5-0.2,0.9c-0.1,0.3-0.1,0.6-0.2,0.9
				c-0.1,0.4-0.2,0.8-0.2,1.2s-0.1,0.6-0.1,0.8c0,0,0.1,0.1,0.2,0.1s0.1,0.1,0.2,0.1c0.2,0,0.4,0,0.7,0s0.5,0,0.8,0
				c0.3,0,0.5,0,0.8,0c0.3,0,0.5,0,0.7,0c0.5,0,1-0.1,1.5-0.1c0.5,0,1-0.1,1.5-0.1s0.9-0.1,1.4-0.2s0.8-0.1,1.1-0.2c0,0,0,0,0.1,0
				s0.2-0.1,0.4-0.1c0.2,0,0.3-0.1,0.5-0.1s0.4-0.1,0.5-0.1c0.2,0,0.3-0.1,0.4-0.1s0.2,0,0.2,0c0.1,0,0.2,0,0.3,0.1
				c0.1,0.1,0.2,0.1,0.3,0.2s0.1,0.2,0.2,0.3s0.1,0.3,0.1,0.4c0,0.1,0,0.1-0.1,0.2s-0.1,0.2-0.2,0.3c-0.1,0.1-0.2,0.2-0.3,0.3
				s-0.3,0.1-0.4,0.2c-0.4,0.1-0.7,0.1-1,0.2s-0.6,0.1-1,0.1c-0.3,0-0.7,0.1-1.1,0.1s-0.8,0.1-1.2,0.1c-0.6,0.1-1.1,0.1-1.7,0.2
				s-1.1,0.1-1.5,0.2c-0.5,0.1-0.9,0.1-1.3,0.2c-0.4,0-0.7,0.1-0.8,0.1c-0.2,0-0.3,0.1-0.5,0.1s-0.4,0.1-0.6,0.1
				c-0.2,0-0.4,0.1-0.5,0.1s-0.3,0.1-0.4,0.1c-0.2,0-0.4,0-0.5-0.1c-0.2,0-0.3-0.1-0.4-0.3c-0.1-0.1-0.2-0.3-0.2-0.5
				s-0.1-0.5-0.1-0.9c0-0.3,0-0.6,0.1-1c0.1-0.4,0.2-0.8,0.3-1.4c0.1-0.4,0.2-0.9,0.3-1.3c0.1-0.4,0.2-0.9,0.3-1.3s0.2-0.9,0.2-1.3
				s0.1-0.9,0.1-1.3c0-0.3,0-0.6,0.1-1s0.1-0.7,0.1-1c0-0.3,0.1-0.7,0.1-1s0-0.7,0-1c0-0.1,0-0.1,0-0.2c0-0.1,0-0.2,0-0.2
				c0-0.3,0.1-0.6,0.3-1c0.1-0.1,0.2-0.2,0.3-0.3C60.9,7.1,61,7,61.2,6.9s0.3-0.2,0.5-0.2c0.2-0.1,0.3-0.1,0.4-0.1
				c0.1,0,0.2,0,0.4,0c0.2,0,0.4,0.1,0.5,0.1s0.4,0.1,0.5,0.1c0.2,0,0.3,0,0.4,0c0.1,0,0.3,0,0.5,0s0.4,0,0.7,0c0.2,0,0.5,0,0.8,0
				s0.5,0,0.8,0c0.5,0,1.1-0.1,1.5-0.1s1-0.1,1.5-0.2c0.3-0.1,0.6-0.1,0.9-0.2s0.5-0.2,0.8-0.2C71.5,6.1,71.8,6,72,6
				c0.2-0.1,0.5-0.1,0.8-0.1c0.1,0,0.2,0,0.3,0.1c0.1,0.1,0.2,0.1,0.2,0.2c0.1,0.1,0.1,0.2,0.2,0.3C73.6,6.5,73.6,6.6,73.6,6.7z"/>
			<path class="st3" d="M75.5,18.7c0.1-0.3,0.2-0.8,0.3-1.3c0.1-0.5,0.2-1.1,0.4-1.7s0.2-1.2,0.4-1.9s0.2-1.3,0.3-1.9
				s0.2-1.2,0.3-1.7c0.1-0.5,0.1-1,0.2-1.4c0-0.1,0-0.3,0-0.5c0-0.2,0-0.3,0-0.5s0.1-0.3,0.2-0.5s0.2-0.3,0.4-0.4
				C78.2,7,78.4,7,78.6,7c0.2,0,0.4,0.1,0.7,0.2c0.1,0,0.1,0.1,0.2,0.2s0.1,0.3,0.1,0.4c0.1,0.2,0.1,0.3,0.1,0.5
				c0,0.2,0.1,0.4,0.1,0.5c0.1,0.3,0.2,0.7,0.4,1.2s0.5,1,0.8,1.6s0.7,1.2,1.1,1.9s0.8,1.3,1.3,2c0.4,0.7,0.9,1.3,1.4,1.9
				c0.5,0.6,0.9,1.2,1.4,1.7c0.2-0.7,0.4-1.4,0.5-2.1s0.3-1.3,0.4-2c0.1-0.6,0.2-1.3,0.3-1.9c0.1-0.6,0.2-1.3,0.3-2
				c0.1-0.4,0.1-0.7,0.2-1.2S88,9.3,88,8.8c0.1-0.4,0.1-0.9,0.1-1.3s0.1-0.8,0.1-1.1c0-0.1,0-0.2,0-0.4c0-0.1,0-0.2,0-0.3
				s0-0.2,0.1-0.3c0-0.1,0.1-0.2,0.2-0.3C88.8,5,89,4.9,89.2,4.8c0.2,0,0.4-0.1,0.6-0.1c0.1,0,0.2,0.1,0.3,0.2
				c0.1,0.1,0.2,0.2,0.2,0.4s0.1,0.3,0.2,0.5c0,0.2,0.1,0.3,0.1,0.4c0,0.1,0,0.2,0,0.4s-0.1,0.4-0.1,0.6c-0.1,0.2-0.1,0.5-0.2,0.7
				C90.1,8.2,90,8.4,90,8.5c-0.2,0.6-0.3,1.4-0.5,2.1c-0.2,0.8-0.3,1.6-0.5,2.4s-0.3,1.6-0.4,2.3c-0.1,0.8-0.2,1.5-0.3,2.1
				s-0.2,1.1-0.2,1.5s-0.1,0.6-0.1,0.7c0,0.1,0,0.2,0,0.4c0,0.1,0,0.3,0,0.4s0,0.3,0,0.4s0,0.2,0,0.3c0,0.2,0,0.3-0.1,0.4
				s-0.1,0.2-0.2,0.3c-0.1,0.1-0.2,0.2-0.2,0.2s-0.2,0.1-0.3,0.1c-0.1,0-0.2,0-0.3,0.1s-0.2,0-0.4,0s-0.2,0-0.3,0S86,22.1,86,22.1
				c-0.3-0.3-0.5-0.5-0.7-0.7s-0.3-0.5-0.4-0.7c0-0.1-0.1-0.2-0.1-0.3s-0.1-0.2-0.2-0.3s-0.1-0.2-0.2-0.3s-0.1-0.2-0.2-0.2
				c-0.5-0.6-0.9-1.2-1.4-1.8s-0.9-1.3-1.3-1.9s-0.9-1.4-1.4-2.2S79.3,12,78.8,11c-0.2,0.7-0.4,1.5-0.5,2.3
				c-0.2,0.8-0.3,1.6-0.4,2.4s-0.2,1.5-0.3,2.2s-0.2,1.3-0.3,1.8c0,0.1,0,0.3,0,0.5c0,0.2,0,0.4,0,0.6s0,0.4,0,0.6s0,0.3-0.1,0.4
				c0,0.1-0.1,0.2-0.2,0.3s-0.2,0.2-0.3,0.3s-0.2,0.2-0.3,0.2s-0.2,0.1-0.3,0.1c-0.2,0-0.4,0-0.5-0.1c-0.1-0.1-0.2-0.2-0.3-0.3
				s-0.1-0.3-0.1-0.5s-0.1-0.4-0.1-0.6c0-0.1,0-0.2,0-0.4s0.1-0.4,0.1-0.7c0.1-0.2,0.1-0.5,0.2-0.8C75.4,19.2,75.5,18.9,75.5,18.7z"
				/>
			<path class="st3" d="M108.4,7.6c0,0.2,0,0.4-0.1,0.5c-0.1,0.1-0.1,0.2-0.2,0.2s-0.2,0.1-0.3,0.1s-0.2,0-0.3,0c-0.2,0-0.5,0-0.7,0
				c-0.2,0-0.4,0-0.6,0s-0.4,0-0.6,0s-0.5,0-0.8,0c-0.3,0-0.7,0-1.1,0.1c-0.4,0.1-0.8,0.1-1.2,0.2s-0.8,0.2-1.1,0.2
				s-0.6,0.2-0.7,0.2c-0.1,0-0.1,0.1-0.2,0.1s-0.1,0.1-0.1,0.2s-0.1,0.2-0.1,0.2s0,0.2,0,0.2c-0.1,0.8-0.2,1.5-0.2,2.2
				s-0.2,1.5-0.2,2.2c-0.1,0.7-0.1,1.4-0.2,2.2c-0.1,0.7-0.1,1.4-0.1,2.1c0,0.1,0,0.3,0.1,0.5c0,0.2,0.1,0.5,0.1,0.7
				s0.1,0.5,0.1,0.7c0,0.2,0.1,0.3,0.1,0.3c0,0.1,0,0.3-0.1,0.4c0,0.1-0.1,0.3-0.2,0.4S99.7,22,99.6,22c-0.1,0.1-0.2,0.1-0.4,0.1
				c-0.1,0-0.2,0-0.3-0.1s-0.2-0.1-0.3-0.2c-0.1-0.1-0.2-0.2-0.3-0.3c-0.1-0.1-0.1-0.2-0.2-0.4c-0.1-0.2-0.1-0.4-0.1-0.6
				c0-0.2-0.1-0.5-0.1-0.7s0-0.5,0-0.7c0-0.2,0-0.5,0-0.7s0-0.4,0-0.5c0-0.1,0-0.2,0-0.3c0-0.2,0-0.5,0.1-1c0-0.5,0.1-1,0.2-1.6
				s0.1-1.2,0.2-1.8c0.1-0.6,0.1-1.2,0.2-1.7s0.1-0.9,0.2-1.2s0.1-0.5,0.1-0.5c0-0.1,0-0.2-0.1-0.2s-0.1-0.1-0.2-0.1s-0.1,0-0.2,0
				s-0.1,0-0.1,0c-0.3,0-0.6,0-1,0.1c-0.4,0.1-0.9,0.1-1.4,0.2s-1,0.2-1.5,0.2s-1,0.1-1.4,0.1c-0.1,0-0.2,0-0.3,0
				c-0.1,0-0.2,0-0.3,0c-0.1,0-0.2-0.1-0.3-0.1c-0.1-0.1-0.2-0.1-0.3-0.2c0-0.1,0-0.2,0-0.3c0-0.1,0-0.2,0-0.4
				c0-0.1,0.1-0.2,0.2-0.3s0.2-0.2,0.3-0.2c0.3-0.1,0.7-0.1,1.1-0.2c0.4,0,0.8-0.1,1.2-0.1s0.8-0.1,1.2-0.1c0.4,0,0.8-0.1,1.1-0.1
				c0.2,0,0.5-0.1,0.8-0.1c0.3,0,0.7-0.1,1-0.1c0.3-0.1,0.7-0.1,1-0.2s0.6-0.1,0.8-0.1c0.4-0.1,0.9-0.2,1.4-0.3s1-0.2,1.5-0.3
				c0.5-0.1,1-0.2,1.5-0.3s0.9-0.1,1.4-0.1c0.1,0,0.1,0,0.3,0c0.1,0,0.3,0,0.4,0s0.3,0,0.5,0.1c0.2,0,0.3,0.1,0.5,0.1
				c0.1,0,0.2,0.1,0.2,0.1c0.1,0.1,0.1,0.2,0.2,0.2c0,0.1,0.1,0.2,0.1,0.3C108.4,7.5,108.4,7.6,108.4,7.6z"/>
			<path class="st3" d="M123.6,6.7c0,0.1,0,0.1-0.1,0.2c0,0.1-0.1,0.2-0.1,0.3c-0.1,0.1-0.1,0.2-0.2,0.3c-0.1,0.1-0.1,0.1-0.2,0.2
				c-0.2,0.1-0.4,0.2-0.5,0.2S122.1,8,121.9,8c-0.7,0.1-1.3,0.2-2,0.3c-0.6,0.1-1.2,0.2-1.8,0.2s-1.1,0.1-1.6,0.1
				c-0.5,0-0.9,0-1.2,0c-0.2,0-0.3,0-0.5,0s-0.3,0-0.4,0c-0.1,0-0.2,0-0.4,0s-0.2,0-0.4,0c-0.3,0-0.6,0-0.8,0s-0.4,0-0.6,0
				c-0.1,0.2-0.2,0.6-0.2,0.9c0,0.4-0.1,0.7-0.1,1.1s0,0.8-0.1,1.1s0,0.7-0.1,1c0.1,0.1,0.3,0.2,0.4,0.2c0.1,0.1,0.2,0.1,0.3,0.1
				s0.2,0,0.3,0s0.2,0,0.4,0c0.2,0,0.4,0,0.6,0s0.4,0,0.7,0s0.4,0,0.6,0c0.2,0,0.4-0.1,0.6-0.1c0.3-0.1,0.5-0.1,0.7-0.1
				c0.2,0,0.4,0,0.6,0s0.4,0,0.6,0c0.2,0,0.4-0.1,0.7-0.2c0.2-0.1,0.3-0.1,0.5-0.2c0.2-0.1,0.3-0.1,0.4-0.2c0.1,0,0.3-0.1,0.4-0.1
				c0.1,0,0.3,0,0.4,0c0.1,0,0.2,0,0.3,0.1s0.1,0.2,0.2,0.3c0,0.1,0.1,0.3,0.1,0.4c0,0.1,0,0.3,0,0.4c0,0.2-0.1,0.3-0.2,0.4
				s-0.2,0.2-0.4,0.3c-0.2,0.1-0.3,0.1-0.5,0.2c-0.2,0-0.3,0.1-0.4,0.1c-0.2,0-0.4,0.1-0.7,0.1c-0.3,0-0.6,0-0.8,0.1
				c-0.3,0-0.6,0-0.8,0c-0.3,0-0.5,0-0.7,0.1c-0.5,0.1-1,0.1-1.5,0.1c-0.5,0-1.1,0-1.6,0c-0.3,0-0.5,0-0.7,0.1
				c-0.2,0-0.4,0.1-0.7,0.2c-0.1,0-0.1,0.1-0.2,0.3c-0.1,0.2-0.1,0.4-0.2,0.7c-0.1,0.3-0.1,0.6-0.2,0.9s-0.1,0.6-0.2,0.9
				c-0.1,0.4-0.2,0.8-0.2,1.2s-0.1,0.6-0.1,0.8c0,0,0.1,0.1,0.2,0.1s0.1,0.1,0.2,0.1c0.2,0,0.4,0,0.7,0c0.3,0,0.5,0,0.8,0
				c0.3,0,0.6,0,0.8,0c0.3,0,0.5,0,0.7,0c0.5,0,1-0.1,1.5-0.1c0.5,0,1-0.1,1.5-0.1s0.9-0.1,1.4-0.2s0.8-0.1,1.1-0.2c0,0,0,0,0.1,0
				s0.2-0.1,0.4-0.1c0.2,0,0.3-0.1,0.5-0.1s0.4-0.1,0.5-0.1c0.2,0,0.3-0.1,0.4-0.1s0.2,0,0.2,0c0.1,0,0.2,0,0.3,0.1
				c0.1,0.1,0.2,0.1,0.3,0.2s0.1,0.2,0.2,0.3s0.1,0.3,0.1,0.4c0,0.1,0,0.1-0.1,0.2s-0.1,0.2-0.2,0.3c-0.1,0.1-0.2,0.2-0.3,0.3
				s-0.3,0.1-0.4,0.2c-0.4,0.1-0.7,0.1-1,0.2s-0.6,0.1-1,0.1c-0.3,0-0.7,0.1-1.1,0.1s-0.8,0.1-1.2,0.1c-0.6,0.1-1.1,0.1-1.7,0.2
				s-1.1,0.1-1.6,0.2c-0.5,0.1-0.9,0.1-1.3,0.2c-0.4,0-0.7,0.1-0.8,0.1c-0.2,0-0.3,0.1-0.5,0.1c-0.2,0-0.4,0.1-0.6,0.1
				c-0.2,0-0.4,0.1-0.6,0.1s-0.3,0.1-0.4,0.1c-0.2,0-0.4,0-0.5-0.1s-0.3-0.1-0.4-0.3c-0.1-0.1-0.2-0.3-0.2-0.5s-0.1-0.5-0.1-0.9
				c0-0.3,0-0.6,0.1-1c0.1-0.4,0.2-0.8,0.3-1.4c0.1-0.4,0.2-0.9,0.3-1.3s0.2-0.9,0.3-1.3s0.2-0.9,0.2-1.3s0.1-0.9,0.1-1.3
				c0-0.3,0-0.6,0.1-1s0.1-0.7,0.1-1s0.1-0.7,0.1-1s0.1-0.7,0.1-1c0-0.1,0-0.1,0-0.2c0-0.1,0-0.2,0-0.2c0-0.3,0.1-0.6,0.3-1
				c0.1-0.1,0.2-0.2,0.3-0.3s0.3-0.2,0.4-0.3s0.3-0.2,0.5-0.2c0.2-0.1,0.3-0.1,0.4-0.1c0.1,0,0.2,0,0.4,0c0.2,0,0.4,0.1,0.6,0.1
				s0.4,0.1,0.6,0.1c0.2,0,0.3,0,0.4,0c0.1,0,0.3,0,0.5,0s0.4,0,0.7,0c0.2,0,0.5,0,0.8,0s0.5,0,0.8,0c0.5,0,1.1-0.1,1.5-0.1
				s1-0.1,1.5-0.2c0.3-0.1,0.6-0.1,0.9-0.2s0.5-0.2,0.8-0.2c0.2-0.1,0.5-0.1,0.7-0.2c0.2-0.1,0.5-0.1,0.8-0.1c0.1,0,0.2,0,0.3,0.1
				c0.1,0.1,0.2,0.1,0.2,0.2c0.1,0.1,0.1,0.2,0.2,0.3C123.5,6.5,123.6,6.6,123.6,6.7z"/>
			<path class="st3" d="M142.6,21.5c0,0.3-0.2,0.5-0.4,0.6s-0.6,0.2-0.9,0.2c-0.4,0-0.8-0.1-1.2-0.3c-0.4-0.2-0.8-0.4-1.3-0.7
				c-0.2-0.2-0.6-0.4-0.9-0.6c-0.4-0.3-0.8-0.6-1.3-1c-0.1-0.1-0.4-0.3-0.7-0.5c-0.4-0.3-0.8-0.6-1.4-1.1c-1.1-0.9-1.8-1.4-1.9-1.4
				c-0.2-0.1-0.6-0.1-1.1-0.1c-0.1,0-0.3,0-0.5,0s-0.6,0-0.9,0.1c-0.3-0.2-0.4-0.5-0.4-1c0-0.4,0.1-0.6,0.4-0.7c0,0,0.1,0,0.2,0
				c0.1,0,0.2,0,0.3,0c0.1,0,0.2,0,0.4,0c0.1,0,0.2,0,0.4,0c0.9-0.1,1.8-0.4,2.5-0.8c0.3-0.1,0.5-0.3,0.8-0.4
				c0.3-0.1,0.5-0.3,0.8-0.5c0.5-0.4,1-0.7,1.4-1.2s0.6-0.8,0.6-1.2c0-0.3-0.1-0.6-0.3-0.9c-0.2-0.3-0.4-0.5-0.7-0.7
				c-0.3-0.2-0.6-0.4-0.9-0.6s-0.6-0.3-0.9-0.4C134,8,133.5,8,132.9,8c-0.2,0-0.4,0-0.6,0c-0.2,0-0.5,0-0.8,0.1
				c-0.3,0-0.5,0.1-0.8,0.1s-0.5,0.1-0.7,0.1c-0.2,0-0.4,0.1-0.7,0.1s-0.5,0.1-0.8,0.1c0.2,0.3,0.3,0.7,0.4,1.2
				c0.1,0.6,0.2,1,0.2,1.4c0,0.2,0,0.4,0,0.6c0,0.2,0,0.4,0,0.6c0,0.2,0,0.4-0.1,0.6c0,0.2-0.1,0.4-0.1,0.6
				c-0.1,0.4-0.1,0.9-0.3,1.5c-0.2,1-0.3,1.9-0.4,2.5c0,0.3-0.1,0.6-0.1,0.9s0,0.6,0,0.8c0,0.5,0,0.9,0.1,1.3
				c0.1,0.4,0.2,0.8,0.5,1.1c-0.1,0.1-0.2,0.3-0.4,0.4c-0.2,0.1-0.4,0.2-0.5,0.2c-0.5,0-0.8-0.1-1-0.3c-0.2-0.2-0.4-0.5-0.4-0.8
				c-0.1-0.3-0.1-0.7-0.1-1.3c0-0.4,0-0.7,0.1-1.1s0.1-0.8,0.2-1.1c0.1-0.3,0.1-0.7,0.2-1c0-0.2,0.1-0.4,0.1-0.6s0.1-0.5,0.1-0.8
				c0.1-0.6,0.2-1.2,0.2-1.8c0.1-0.6,0.1-1.1,0.1-1.6c0-0.4,0-0.9,0-1.3s-0.1-0.9-0.1-1.4c-0.8,0.2-1.2,0.3-1.3,0.3
				c-0.2,0-0.4-0.1-0.4-0.2c-0.1-0.1-0.1-0.3-0.1-0.6c0-0.3,0.2-0.5,0.8-0.8c0.3-0.1,0.5-0.2,0.8-0.3s0.5-0.2,0.8-0.3
				c0.6-0.2,1.3-0.3,2.3-0.5c0.9-0.2,1.7-0.2,2.4-0.2c1.1,0,2.1,0.1,3.1,0.4c1,0.2,1.9,0.7,2.6,1.3c0.7,0.6,1.1,1.5,1.1,2.6
				c0,0.7-0.3,1.3-0.8,2c-0.5,0.6-1.1,1.2-1.8,1.6c-0.7,0.5-1.4,0.9-2.3,1.3c0.5,0.3,1.1,0.8,1.9,1.3c0.4,0.3,0.8,0.5,1.1,0.8
				c0.4,0.2,0.7,0.5,1,0.7c0.3,0.2,0.7,0.5,1,0.7c0.4,0.3,0.8,0.5,1.2,0.9s0.9,0.6,1.2,0.8C142.1,21.2,142.4,21.3,142.6,21.5z"/>
		</g>
		<g class="st4">
			<path class="st3" d="M95.9,26.7c0,0.1-0.1,0.3-0.2,0.6c-0.1,0.1-0.1,0.3-0.2,0.4s-0.1,0.2-0.2,0.3c-0.3,0.4-0.7,0.8-1.4,1.2
				c-0.6,0.4-1.3,0.8-1.9,1.1c-0.4,0.2-0.8,0.4-1.2,0.6c-0.4,0.2-0.8,0.3-1.3,0.5c0,0,0,0.1,0,0.2v0.2c0,0.1,0,0.3,0,0.5
				s0,0.4,0.1,0.7c0,0.3,0,0.5,0.1,0.8c0,0.2,0,0.4,0,0.6c0,0.2-0.1,0.3-0.1,0.4s-0.2,0.1-0.4,0.1c-0.4,0-0.7-0.9-0.7-2.8v-0.2
				c0-0.2,0-0.5,0-0.7s0.1-0.6,0.1-0.9c0-0.1,0-0.2,0.1-0.4c0-0.1,0-0.2,0.1-0.4c0-0.3,0.1-0.5,0.1-0.7c0-0.2,0.1-0.4,0.1-0.6
				c0,0,0-0.1,0-0.2c0-0.1,0-0.1,0.1-0.2c0-0.2,0.1-0.3,0.1-0.5c0-0.1,0.1-0.3,0.2-0.4s0.2-0.2,0.2-0.4c0.1,0,0.1,0,0.2,0
				c0.2,0,0.3,0,0.3,0.1c0.1,0.1,0.1,0.2,0.1,0.4c0,0,0,0.1,0,0.2s-0.1,0.2-0.1,0.3s-0.1,0.2-0.1,0.3c0,0.1-0.1,0.2-0.1,0.2
				c0,0.1-0.1,0.2-0.1,0.3c0,0.1,0,0.2-0.1,0.4s0,0.2-0.1,0.4c0,0.1,0,0.3-0.1,0.4s0,0.3,0,0.4s0,0.2,0,0.3s0,0.2,0,0.3
				c0.1-0.1,0.3-0.1,0.5-0.2c0.2-0.1,0.4-0.2,0.6-0.3c0.5-0.2,0.9-0.4,1.2-0.5c0.4-0.2,0.7-0.4,1.1-0.6c0.2-0.1,0.4-0.3,0.7-0.5
				s0.4-0.4,0.6-0.6c0.4-0.4,0.6-0.8,0.6-1.2c0-0.2-0.2-0.3-0.5-0.4c-0.2,0-0.3-0.1-0.5-0.1c-0.2,0-0.3,0-0.5-0.1
				c-0.2,0-0.3,0-0.5,0c-0.2,0-0.3,0-0.4,0c-0.8,0-1.6,0.1-2.5,0.2c-0.4,0.1-1,0.3-1.8,0.5c-0.1,0-0.2,0-0.2,0c-0.1,0-0.2,0-0.2-0.1
				s-0.1-0.1-0.1-0.2c0-0.2,0.1-0.4,0.2-0.5c0.1-0.1,0.3-0.2,0.5-0.3c0.2-0.1,0.6-0.2,1.1-0.3c0.2,0,0.5-0.1,0.7-0.1
				c0.2,0,0.5-0.1,0.7-0.1c0.5-0.1,0.9-0.1,1.1-0.1c0.2,0,0.4,0,0.6,0c0.2,0,0.4,0,0.6,0c0.2,0,0.4,0,0.6,0.1c0.2,0,0.4,0.1,0.6,0.1
				c0.4,0.1,0.7,0.2,1,0.5C95.8,26,95.9,26.3,95.9,26.7z"/>
			<path class="st3" d="M104.6,33.6c0,0.2-0.1,0.3-0.2,0.4s-0.2,0.2-0.4,0.2c-0.1,0-0.1,0-0.2,0c-0.1,0-0.1-0.1-0.2-0.2
				c-0.1-0.1-0.1-0.2-0.2-0.3c-0.2-0.2-0.3-0.5-0.4-0.7s-0.2-0.5-0.3-0.7c0,0,0-0.1-0.1-0.2c0,0,0-0.1-0.1-0.1c0,0,0-0.1-0.1-0.2
				c0-0.1-0.1-0.1-0.1-0.2c-0.1-0.3-0.2-0.6-0.2-0.7c-0.1,0-0.1,0.1-0.2,0.1s-0.1,0-0.2,0.1c-0.1,0-0.1,0-0.2,0s-0.1,0-0.2,0
				c0,0-0.1,0-0.2,0c-0.1,0-0.1,0-0.2,0c-0.1,0-0.1,0-0.2,0.1c-0.1,0-0.1,0-0.2,0.1c-0.2,0.1-0.4,0.1-0.6,0.1
				c-0.2,0-0.4,0.1-0.6,0.1c-0.2,0-0.4,0.1-0.7,0.1c-0.2,0-0.5,0.1-0.7,0.1c-0.1,0-0.2,0.1-0.3,0.2c-0.1,0.1-0.3,0.4-0.6,0.9
				c-0.3,0.5-0.6,0.8-0.8,1c-0.2,0.2-0.4,0.3-0.6,0.3c-0.3,0-0.5,0-0.7-0.2c-0.2-0.1-0.3-0.3-0.3-0.4c0-0.1,0-0.1,0.1-0.2
				s0.2-0.1,0.3-0.1c0.1,0,0.2-0.1,0.3-0.3c0.2-0.2,0.3-0.3,0.4-0.5c0.2-0.2,0.3-0.5,0.5-0.7s0.4-0.5,0.6-0.8
				c0.1-0.2,0.2-0.3,0.3-0.4c0.1-0.1,0.1-0.2,0.2-0.3c0.1-0.1,0.1-0.2,0.2-0.3s0.2-0.2,0.2-0.3c0,0,0.1-0.1,0.1-0.2
				c0.1-0.1,0.1-0.2,0.2-0.3c0.1-0.1,0.1-0.2,0.2-0.3s0.1-0.1,0.2-0.2s0.1-0.1,0.2-0.2s0.2-0.2,0.3-0.3c0,0,0.1-0.1,0.2-0.3
				c0.1-0.1,0.2-0.4,0.4-0.6c0.2-0.4,0.4-0.6,0.4-0.8c0.5-1.1,0.8-1.7,1-1.7c0.1,0,0.2,0,0.2,0s0.1,0,0.2,0.1s0.1,0.1,0.1,0.2
				s0,0.1,0,0.2c0,0.1,0,0.1,0,0.2c0,0,0,0.1,0,0.1c0,0.1,0,0.1,0,0.2s0,0.2,0,0.4c0.2,0.4,0.4,0.9,0.6,1.3c0.1,0.2,0.2,0.5,0.3,0.8
				s0.2,0.6,0.3,1c0.1,0.3,0.2,0.6,0.3,0.9c0.1,0.2,0.2,0.4,0.2,0.6c0.1,0.1,0.1,0.3,0.2,0.5s0.2,0.4,0.3,0.7c0,0.1,0.2,0.3,0.4,0.7
				C104.4,33.2,104.6,33.5,104.6,33.6z M101.9,30.1c-0.1-0.2-0.2-0.5-0.2-0.7s-0.2-0.5-0.3-0.8c-0.1-0.2-0.2-0.5-0.3-0.7
				c-0.1-0.2-0.2-0.4-0.3-0.6c-0.2,0.3-0.4,0.6-0.6,0.9s-0.4,0.5-0.6,0.8s-0.4,0.6-0.5,0.9s-0.4,0.6-0.6,0.9c0,0,0.1,0,0.1,0
				c0.1,0,0.1,0,0.2,0c0.1,0,0.2,0,0.3,0s0.2,0,0.3,0s0.2,0,0.2,0c0.1,0,0.2,0,0.2-0.1c0.1,0,0.1,0,0.2,0c0.1,0,0.1,0,0.2,0
				c0.1,0,0.2,0,0.3-0.1c0.2-0.1,0.5-0.1,0.7-0.2C101.6,30.2,101.8,30.2,101.9,30.1z"/>
			<path class="st3" d="M113.8,26.1c0,0.1,0,0.2,0,0.3c0,0.1-0.1,0.1-0.1,0.1c0,0-0.1,0-0.1,0s-0.1,0-0.2,0c-0.1,0-0.3,0-0.4,0
				c-0.1,0-0.2,0-0.3,0c-0.1,0-0.2,0-0.3,0c-0.1,0-0.3,0-0.4,0c-0.2,0-0.4,0-0.6,0s-0.5,0.1-0.7,0.1s-0.4,0.1-0.6,0.1
				s-0.3,0.1-0.4,0.1c0,0-0.1,0-0.1,0.1s-0.1,0.1-0.1,0.1s0,0.1-0.1,0.1s0,0.1,0,0.1c0,0.4-0.1,0.8-0.1,1.2
				c-0.1,0.4-0.1,0.8-0.1,1.2c0,0.4-0.1,0.8-0.1,1.2c0,0.4,0,0.8,0,1.2c0,0.1,0,0.2,0,0.3s0,0.3,0.1,0.4c0,0.1,0,0.3,0.1,0.4
				c0,0.1,0,0.2,0,0.2c0,0.1,0,0.2,0,0.2c0,0.1-0.1,0.2-0.1,0.2c0,0.1-0.1,0.1-0.2,0.2c-0.1,0-0.1,0.1-0.2,0.1c-0.1,0-0.1,0-0.2,0
				c-0.1,0-0.1-0.1-0.2-0.1c-0.1,0-0.1-0.1-0.2-0.2c0-0.1-0.1-0.1-0.1-0.2c0-0.1-0.1-0.2-0.1-0.3c0-0.1,0-0.3-0.1-0.4
				c0-0.1,0-0.3,0-0.4c0-0.1,0-0.3,0-0.4s0-0.2,0-0.3s0-0.1,0-0.1c0-0.1,0-0.3,0-0.6c0-0.3,0.1-0.5,0.1-0.9c0-0.3,0.1-0.6,0.1-1
				c0-0.3,0.1-0.6,0.1-0.9s0.1-0.5,0.1-0.7s0-0.3,0-0.3c0-0.1,0-0.1,0-0.1s-0.1,0-0.1,0s-0.1,0-0.1,0s-0.1,0-0.1,0
				c-0.2,0-0.3,0-0.6,0s-0.5,0.1-0.8,0.1c-0.3,0-0.5,0.1-0.8,0.1s-0.5,0-0.8,0c-0.1,0-0.1,0-0.2,0s-0.1,0-0.2,0s-0.1,0-0.2-0.1
				c-0.1,0-0.1-0.1-0.2-0.1c0,0,0-0.1,0-0.1s0-0.1,0-0.2c0-0.1,0-0.1,0.1-0.2c0,0,0.1-0.1,0.2-0.1c0.2,0,0.4-0.1,0.6-0.1
				s0.5,0,0.7-0.1c0.2,0,0.5,0,0.7,0c0.2,0,0.4,0,0.6-0.1c0.1,0,0.3,0,0.5-0.1s0.4,0,0.6-0.1c0.2,0,0.4,0,0.6-0.1s0.3,0,0.4-0.1
				c0.2,0,0.5-0.1,0.8-0.2c0.3-0.1,0.5-0.1,0.8-0.2s0.5-0.1,0.8-0.1c0.3,0,0.5-0.1,0.8-0.1c0,0,0.1,0,0.2,0s0.2,0,0.2,0s0.2,0,0.3,0
				s0.2,0,0.3,0.1c0,0,0.1,0,0.1,0.1c0,0,0.1,0.1,0.1,0.1c0,0,0,0.1,0.1,0.1C113.7,26,113.8,26,113.8,26.1z"/>
			<path class="st3" d="M123.7,33.8c0,0.2-0.1,0.3-0.2,0.4s-0.3,0.1-0.5,0.1c-0.2,0-0.4,0-0.7-0.2c-0.2-0.1-0.5-0.2-0.7-0.4
				c-0.1-0.1-0.3-0.2-0.5-0.4c-0.2-0.2-0.4-0.3-0.7-0.5c-0.1,0-0.2-0.2-0.4-0.3c-0.2-0.2-0.4-0.3-0.8-0.6c-0.6-0.5-1-0.8-1.1-0.8
				c-0.1,0-0.3-0.1-0.6-0.1c-0.1,0-0.2,0-0.3,0c-0.1,0-0.3,0-0.5,0c-0.2-0.1-0.2-0.3-0.2-0.5c0-0.2,0.1-0.4,0.2-0.4c0,0,0.1,0,0.1,0
				s0.1,0,0.2,0c0.1,0,0.1,0,0.2,0s0.1,0,0.2,0c0.5-0.1,1-0.2,1.4-0.4c0.2-0.1,0.3-0.2,0.4-0.2s0.3-0.2,0.4-0.3
				c0.3-0.2,0.5-0.4,0.8-0.6c0.2-0.2,0.3-0.5,0.3-0.7c0-0.2,0-0.3-0.2-0.5c-0.1-0.1-0.2-0.3-0.4-0.4c-0.2-0.1-0.3-0.2-0.5-0.3
				s-0.4-0.2-0.5-0.2c-0.3-0.1-0.6-0.1-0.9-0.1c-0.1,0-0.2,0-0.3,0s-0.3,0-0.4,0s-0.3,0-0.4,0c-0.1,0-0.3,0-0.4,0
				c-0.1,0-0.2,0-0.4,0.1c-0.1,0-0.3,0-0.4,0.1c0.1,0.1,0.2,0.4,0.2,0.7c0.1,0.3,0.1,0.6,0.1,0.8c0,0.1,0,0.2,0,0.3s0,0.2,0,0.3
				c0,0.1,0,0.2,0,0.3c0,0.1,0,0.2-0.1,0.3c0,0.2-0.1,0.5-0.1,0.8c-0.1,0.6-0.2,1-0.2,1.4c0,0.2,0,0.3-0.1,0.5c0,0.2,0,0.3,0,0.5
				c0,0.3,0,0.5,0.1,0.7c0.1,0.2,0.1,0.4,0.3,0.6c-0.1,0.1-0.1,0.2-0.2,0.2c-0.1,0.1-0.2,0.1-0.3,0.1c-0.3,0-0.5,0-0.6-0.2
				c-0.1-0.1-0.2-0.2-0.2-0.4c0-0.2,0-0.4,0-0.7c0-0.2,0-0.4,0-0.6c0-0.2,0.1-0.4,0.1-0.6c0-0.2,0.1-0.4,0.1-0.6
				c0-0.1,0-0.2,0.1-0.3s0-0.3,0.1-0.5c0.1-0.4,0.1-0.7,0.1-1s0.1-0.6,0.1-0.9c0-0.2,0-0.5,0-0.8c0-0.3,0-0.5-0.1-0.8
				c-0.4,0.1-0.7,0.2-0.7,0.2c-0.1,0-0.2,0-0.2-0.1s-0.1-0.2-0.1-0.3c0-0.1,0.1-0.3,0.4-0.4c0.1-0.1,0.3-0.1,0.4-0.2
				s0.3-0.1,0.4-0.1c0.3-0.1,0.7-0.2,1.3-0.3s1-0.1,1.3-0.1c0.6,0,1.2,0.1,1.8,0.2c0.6,0.1,1,0.4,1.4,0.7c0.4,0.4,0.6,0.8,0.6,1.4
				c0,0.4-0.1,0.8-0.4,1.1c-0.3,0.4-0.6,0.7-1,0.9s-0.8,0.5-1.2,0.8c0.3,0.2,0.6,0.4,1.1,0.8c0.2,0.2,0.4,0.3,0.6,0.4
				c0.2,0.1,0.4,0.3,0.6,0.4c0.2,0.1,0.4,0.2,0.6,0.4c0.2,0.1,0.4,0.3,0.7,0.5c0.2,0.2,0.5,0.3,0.7,0.4
				C123.4,33.6,123.5,33.7,123.7,33.8z"/>
			<path class="st3" d="M133.4,33.6c0,0.2-0.1,0.3-0.1,0.4s-0.2,0.2-0.4,0.2c-0.1,0-0.1,0-0.2,0c-0.1,0-0.1-0.1-0.2-0.2
				c-0.1-0.1-0.1-0.2-0.2-0.3c-0.1-0.2-0.3-0.5-0.4-0.7s-0.2-0.5-0.3-0.7c0,0,0-0.1-0.1-0.2c0,0,0-0.1-0.1-0.1c0,0,0-0.1-0.1-0.2
				c0-0.1-0.1-0.1-0.1-0.2c-0.1-0.3-0.2-0.6-0.2-0.7c-0.1,0-0.1,0.1-0.2,0.1s-0.1,0-0.2,0.1c-0.1,0-0.1,0-0.2,0s-0.1,0-0.2,0
				c0,0-0.1,0-0.1,0c-0.1,0-0.1,0-0.2,0c-0.1,0-0.1,0-0.2,0.1c-0.1,0-0.1,0-0.2,0.1c-0.2,0.1-0.4,0.1-0.6,0.1
				c-0.2,0-0.4,0.1-0.6,0.1c-0.2,0-0.4,0.1-0.7,0.1c-0.2,0-0.5,0.1-0.7,0.1c-0.1,0-0.2,0.1-0.3,0.2c-0.1,0.1-0.3,0.4-0.6,0.9
				c-0.3,0.5-0.6,0.8-0.8,1c-0.2,0.2-0.4,0.3-0.6,0.3c-0.3,0-0.5,0-0.7-0.2c-0.2-0.1-0.3-0.3-0.3-0.4c0-0.1,0-0.1,0.1-0.2
				s0.2-0.1,0.3-0.1c0.1,0,0.2-0.1,0.3-0.3c0.2-0.2,0.3-0.3,0.4-0.5c0.2-0.2,0.3-0.5,0.5-0.7s0.4-0.5,0.6-0.8
				c0.1-0.2,0.2-0.3,0.3-0.4c0.1-0.1,0.1-0.2,0.2-0.3c0.1-0.1,0.1-0.2,0.2-0.3s0.2-0.2,0.2-0.3c0,0,0.1-0.1,0.1-0.2
				c0.1-0.1,0.1-0.2,0.2-0.3c0.1-0.1,0.1-0.2,0.2-0.3s0.1-0.1,0.2-0.2s0.1-0.1,0.2-0.2s0.2-0.2,0.3-0.3c0,0,0.1-0.1,0.2-0.3
				c0.1-0.1,0.2-0.4,0.4-0.6c0.2-0.4,0.4-0.6,0.4-0.8c0.5-1.1,0.8-1.7,1-1.7c0.1,0,0.2,0,0.2,0s0.1,0,0.1,0.1s0.1,0.1,0.1,0.2
				c0,0.1,0,0.1,0,0.2c0,0.1,0,0.1,0,0.2c0,0,0,0.1,0,0.1c0,0.1,0,0.1,0,0.2s0,0.2,0,0.4c0.2,0.4,0.4,0.9,0.6,1.3
				c0.1,0.2,0.2,0.5,0.3,0.8c0.1,0.3,0.2,0.6,0.3,1c0.1,0.3,0.2,0.6,0.3,0.9c0.1,0.2,0.2,0.4,0.2,0.6c0.1,0.1,0.1,0.3,0.2,0.5
				s0.2,0.4,0.3,0.7c0,0.1,0.2,0.3,0.4,0.7C133.2,33.2,133.4,33.5,133.4,33.6z M130.7,30.1c-0.1-0.2-0.1-0.5-0.2-0.7
				s-0.2-0.5-0.3-0.8s-0.2-0.5-0.3-0.7c-0.1-0.2-0.2-0.4-0.3-0.6c-0.2,0.3-0.4,0.6-0.6,0.9s-0.4,0.5-0.6,0.8
				c-0.2,0.3-0.4,0.6-0.5,0.9c-0.2,0.3-0.4,0.6-0.6,0.9c0,0,0.1,0,0.1,0c0.1,0,0.1,0,0.2,0c0.1,0,0.2,0,0.3,0c0.1,0,0.2,0,0.3,0
				s0.2,0,0.2,0c0.1,0,0.2,0,0.2-0.1c0.1,0,0.1,0,0.2,0c0.1,0,0.1,0,0.2,0c0.1,0,0.2,0,0.3-0.1c0.2-0.1,0.5-0.1,0.7-0.2
				C130.4,30.2,130.6,30.2,130.7,30.1z"/>
			<path class="st3" d="M140.7,26.5c0,0,0,0.1,0,0.2c0,0.1,0,0.1-0.1,0.2s-0.1,0.1-0.1,0.2s-0.1,0.1-0.1,0.2
				c-0.1,0.1-0.3,0.2-0.5,0.2c0-0.3,0-0.5-0.1-0.7c0-0.1-0.1-0.1-0.2-0.2s-0.2-0.1-0.3-0.1c-0.1,0-0.2-0.1-0.4-0.1
				c-0.1,0-0.2,0-0.3,0c-0.2,0-0.4,0-0.6,0s-0.4,0-0.5,0c-0.2,0-0.3,0.1-0.5,0.1c-0.2,0-0.4,0.1-0.5,0.2c-0.1,0.1-0.3,0.1-0.4,0.2
				s-0.3,0.2-0.4,0.3c-0.1,0.1-0.2,0.2-0.3,0.3c-0.1,0.1-0.1,0.3-0.2,0.4c0,0.1,0,0.2,0.1,0.4c0.1,0.1,0.2,0.3,0.3,0.4
				c0.1,0.1,0.3,0.3,0.4,0.4s0.3,0.2,0.5,0.2c0,0,0.1,0,0.2,0.1c0.1,0,0.2,0.1,0.4,0.1c0.1,0,0.2,0.1,0.4,0.1c0.1,0,0.2,0.1,0.2,0.1
				c0.9,0.2,1.6,0.5,2,0.8c0.4,0.3,0.6,0.7,0.6,1.1c0,0.1,0,0.3-0.1,0.4c-0.1,0.1-0.1,0.3-0.2,0.4s-0.2,0.2-0.3,0.4
				c-0.1,0.1-0.2,0.2-0.3,0.3c-0.1,0.1-0.2,0.2-0.4,0.3c-0.1,0.1-0.3,0.2-0.5,0.3s-0.3,0.2-0.5,0.2c-0.2,0.1-0.4,0.2-0.5,0.2
				c-0.2,0.1-0.4,0.1-0.6,0.2s-0.4,0.1-0.6,0.1s-0.4,0.1-0.6,0.1s-0.3,0-0.5,0c-0.1,0-0.2,0-0.4,0s-0.3-0.1-0.5-0.1
				c-0.2,0-0.3-0.1-0.4-0.2c-0.1-0.1-0.2-0.2-0.2-0.2c0,0,0-0.1,0-0.2s0-0.2,0.1-0.2s0.1-0.1,0.1-0.2s0.1-0.1,0.1-0.1
				c0.1,0,0.2,0,0.2,0s0.2,0,0.3,0.1c0.1,0,0.3,0.1,0.4,0.1c0.2,0,0.4,0,0.6,0c0.2,0,0.5,0,0.7-0.1c0.2,0,0.5-0.1,0.8-0.2
				s0.5-0.2,0.7-0.3c0.2-0.1,0.4-0.2,0.6-0.3c0.1,0,0.2-0.1,0.3-0.2s0.2-0.2,0.3-0.2s0.2-0.2,0.2-0.3s0.1-0.2,0.1-0.3
				c0-0.1-0.1-0.3-0.3-0.4c-0.2-0.1-0.4-0.2-0.7-0.3c-0.2-0.1-0.4-0.1-0.6-0.2c-0.2-0.1-0.5-0.1-0.7-0.2c-0.3-0.1-0.6-0.2-0.9-0.3
				c-0.5-0.2-1-0.5-1.4-0.9c-0.4-0.4-0.6-0.9-0.6-1.4c0-0.3,0.1-0.5,0.2-0.8s0.4-0.5,0.7-0.7c0.3-0.2,0.6-0.4,1-0.5s0.7-0.3,1.1-0.4
				c0.1,0,0.2,0,0.3,0c0.1,0,0.2,0,0.4,0s0.2,0,0.4,0s0.2,0,0.3,0c0.1,0,0.2,0,0.4,0c0.1,0,0.3,0,0.4,0.1s0.3,0,0.4,0.1
				c0.1,0,0.2,0.1,0.3,0.1c0.2,0.1,0.4,0.2,0.5,0.4C140.6,26.2,140.7,26.3,140.7,26.5z"/>
		</g>
	</g>
</g>
</svg>
